<svg width="80" height="13" viewBox="0 0 80 13" fill="none" xmlns="http://www.w3.org/2000/svg">
<path d="M29.8702 12.7648H37.1216L39.8766 8.71391H32.6252L29.8702 12.7648ZM0.468933 10.3101V11.1686H10.574L11.1546 10.3101H0.468933ZM21.828 8.71391C20.7531 8.71391 21.0867 8.23074 21.2598 7.97599C21.6058 7.46669 22.1986 6.58097 22.5444 6.08473C22.8904 5.58831 22.8904 5.29307 22.1986 5.29307H15.8983L10.8211 12.7782H23.1869C27.2758 12.7782 29.5488 9.75995 30.253 8.71391H21.828ZM12.2419 8.71391H0.468933V9.57239H11.6611L12.2419 8.71391ZM0.468933 12.7648H9.49925L10.08 11.9061H0.468933V12.7648ZM40.3702 12.7648H47.622L50.3768 8.71391H43.1254C43.113 8.71391 40.3702 12.7648 40.3702 12.7648ZM67.7955 12.7784H79.5311V11.9198H68.3761L67.7955 12.7784ZM70.5501 8.71391L69.9695 9.57239H79.5311V8.71391H70.5501ZM68.8826 11.1686H79.5311V10.3101H69.4628L68.8826 11.1686ZM52.7366 8.71391C52.7366 8.71391 52.205 9.50502 51.946 9.88107C51.0318 11.2222 51.8345 12.7782 54.8119 12.7782H66.4614L69.2158 8.71391H52.7366Z" fill="#D70512"/>
<path d="M61.0504 7.78862L65.9053 0.625378H58.2213L53.3667 7.78862H61.0504Z" fill="#A1040E"/>
<path d="M25.954 5.14582C25.608 5.65531 25.0276 6.54103 24.6816 7.0507C24.5087 7.31888 24.1751 7.78862 25.2498 7.78862H30.883C30.883 7.78862 31.7849 6.44697 32.5507 5.31994C33.5887 3.79092 32.6372 0.625378 28.9434 0.625378H14.3791L11.8589 4.35415H25.6206C26.3122 4.35434 26.3 4.6494 25.954 5.14582Z" fill="#A1040E"/>
<path d="M48.5979 0.625378L45.8185 4.7302H42.5817L45.3615 0.625378H38.1099L33.2549 7.78862H50.9945L55.8493 0.625378H48.5979Z" fill="#A1040E"/>
</svg>
