<svg width="18" height="16" viewBox="0 0 18 16" fill="none" xmlns="http://www.w3.org/2000/svg">
<path d="M0.5625 10.0124C0.711684 10.0124 0.854758 10.0717 0.960248 10.1772C1.06574 10.2827 1.125 10.4257 1.125 10.5749V13.3874C1.125 13.6858 1.24353 13.9719 1.4545 14.1829C1.66548 14.3939 1.95163 14.5124 2.25 14.5124H15.75C16.0484 14.5124 16.3345 14.3939 16.5455 14.1829C16.7565 13.9719 16.875 13.6858 16.875 13.3874V10.5749C16.875 10.4257 16.9343 10.2827 17.0398 10.1772C17.1452 10.0717 17.2883 10.0124 17.4375 10.0124C17.5867 10.0124 17.7298 10.0717 17.8352 10.1772C17.9407 10.2827 18 10.4257 18 10.5749V13.3874C18 13.9842 17.7629 14.5565 17.341 14.9784C16.919 15.4004 16.3467 15.6374 15.75 15.6374H2.25C1.65326 15.6374 1.08097 15.4004 0.65901 14.9784C0.237053 14.5565 0 13.9842 0 13.3874V10.5749C0 10.4257 0.0592632 10.2827 0.164752 10.1772C0.270242 10.0717 0.413316 10.0124 0.5625 10.0124Z" fill="#ffffff"/>
<path d="M8.60197 12.2107C8.65422 12.2631 8.7163 12.3047 8.78463 12.333C8.85297 12.3614 8.92623 12.376 9.00022 12.376C9.07421 12.376 9.14747 12.3614 9.21581 12.333C9.28415 12.3047 9.34622 12.2631 9.39847 12.2107L12.7735 8.83575C12.8791 8.73013 12.9384 8.58687 12.9384 8.4375C12.9384 8.28813 12.8791 8.14487 12.7735 8.03925C12.6678 7.93363 12.5246 7.87429 12.3752 7.87429C12.2258 7.87429 12.0826 7.93363 11.977 8.03925L9.56272 10.4546V0.5625C9.56272 0.413316 9.50346 0.270242 9.39797 0.164752C9.29248 0.0592632 9.14941 0 9.00022 0C8.85104 0 8.70796 0.0592632 8.60247 0.164752C8.49699 0.270242 8.43772 0.413316 8.43772 0.5625V10.4546L6.02347 8.03925C5.91785 7.93363 5.7746 7.87429 5.62522 7.87429C5.47585 7.87429 5.33259 7.93363 5.22697 8.03925C5.12135 8.14487 5.06201 8.28813 5.06201 8.4375C5.06201 8.58687 5.12135 8.73013 5.22697 8.83575L8.60197 12.2107Z" fill="#ffffff"/>
</svg>
