<svg width="12" height="12" viewBox="0 0 12 12" fill="none" xmlns="http://www.w3.org/2000/svg">
<path d="M6 1C5.0111 1 4.0444 1.29324 3.22215 1.84265C2.39991 2.39206 1.75904 3.17295 1.3806 4.08658C1.00217 5.00021 0.90315 6.00555 1.09608 6.97545C1.289 7.94536 1.76521 8.83627 2.46447 9.53553C3.16373 10.2348 4.05465 10.711 5.02455 10.9039C5.99446 11.0969 6.99979 10.9978 7.91342 10.6194C8.82705 10.241 9.60794 9.6001 10.1573 8.77785C10.7068 7.95561 11 6.98891 11 6C11 5.34339 10.8707 4.69321 10.6194 4.08658C10.3681 3.47995 9.99983 2.92876 9.53554 2.46447C9.07124 2.00017 8.52005 1.63188 7.91342 1.3806C7.30679 1.12933 6.65661 1 6 1ZM4.855 5.145L5.5 5.795V3H6.5V5.795L7.145 5.15L7.85 5.855L6 7.705L4.145 5.855L4.855 5.145ZM8 9H4V8H8V9Z" fill="#33CD32"/>
</svg>
