<svg width="17" height="14" viewBox="0 0 17 14" fill="none" xmlns="http://www.w3.org/2000/svg">
<path d="M3.96789 0.613299C6.7607 0.366581 9.5693 0.366581 12.3621 0.613299L13.7076 0.732165C14.6034 0.811295 15.3705 1.35425 15.768 2.1309C15.8189 2.23026 15.7808 2.35056 15.6871 2.40951L10.1044 5.92158C8.90711 6.67482 7.39738 6.69063 6.18505 5.96261L0.565093 2.58777C0.474296 2.53325 0.432619 2.42101 0.473538 2.32223C0.837186 1.44436 1.65475 0.817643 2.62235 0.732165L3.96789 0.613299Z" fill="black"/>
<path d="M0.468965 4.10758C0.330009 4.02413 0.152707 4.11393 0.13651 4.27713C-0.0895556 6.55484 -0.0348415 8.85413 0.300652 11.1214C0.477518 12.3167 1.43743 13.233 2.62235 13.3377L3.96789 13.4565C6.7607 13.7033 9.56931 13.7033 12.3621 13.4565L13.7077 13.3377C14.8926 13.233 15.8525 12.3167 16.0293 11.1214C16.3746 8.78806 16.4225 6.42081 16.173 4.07806C16.1555 3.91371 15.9752 3.82556 15.8369 3.91258L10.8079 7.07636C9.18796 8.09545 7.14538 8.11683 5.50517 7.13187L0.468965 4.10758Z" fill="black"/>
</svg>
