<svg width="27" height="27" viewBox="0 0 27 27" fill="none" xmlns="http://www.w3.org/2000/svg">
<path d="M26.1819 13.6768C26.1819 12.7748 26.0946 11.8436 25.9491 10.9707H13.3496V16.1211H20.566C20.275 17.7797 19.3147 19.2346 17.8889 20.1657L22.1955 23.512C24.727 21.1551 26.1819 17.7215 26.1819 13.6768Z" fill="#4280EF"/>
<path d="M13.3502 26.7126C16.9584 26.7126 19.9846 25.5196 22.196 23.4827L17.8895 20.1655C16.6965 20.9803 15.1543 21.4458 13.3502 21.4458C9.85839 21.4458 6.91948 19.0889 5.84284 15.9463L1.41992 19.3508C3.68958 23.861 8.28709 26.7126 13.3502 26.7126Z" fill="#34A353"/>
<path d="M5.84146 15.9172C5.28859 14.2586 5.28859 12.4545 5.84146 10.7959L1.41854 7.3623C-0.472846 11.1451 -0.472846 15.5971 1.41854 19.3508L5.84146 15.9172Z" fill="#F6B704"/>
<path d="M13.3502 5.29638C15.2416 5.26728 17.1038 5.99473 18.4715 7.30415L22.2833 3.46319C19.8682 1.19353 16.6674 -0.0285903 13.3502 0.000507847C8.28709 0.000507847 3.68958 2.85213 1.41992 7.36235L5.84285 10.7959C6.91948 7.62423 9.8584 5.29638 13.3502 5.29638Z" fill="#E54335"/>
</svg>
