<svg width="547" height="487" viewBox="0 0 547 487" fill="none" xmlns="http://www.w3.org/2000/svg">
<path d="M323.288 128.299C381.603 136.933 429.692 126.749 475.076 179.487C517.982 229.35 510.953 277.045 474.654 320.458C379.828 433.891 266.184 308.682 135.439 297.779C21.5552 288.271 -26.2098 105.494 65.3198 33.135C94.8155 9.71026 154.525 -14.4328 193.29 10.5977C247.604 45.8122 243.125 116.439 323.288 128.299Z" fill="#33CD32" fill-opacity="0.1"/>
<path d="M273.11 486.078C423.944 486.078 546.22 478.939 546.22 470.133C546.22 461.327 423.944 454.188 273.11 454.188C122.275 454.188 0 461.327 0 470.133C0 478.939 122.275 486.078 273.11 486.078Z" fill="#08085E" fill-opacity="0.1"/>
<path d="M419.998 75.9269C418.491 83.6459 417.575 94.323 422.97 99.4784C422.97 99.4784 420.857 107.296 406.532 107.296C390.77 107.296 398.954 100.436 398.954 100.436C405.504 98.3938 405.447 90.9424 403.94 84.9418L419.998 75.9269Z" fill="#FFB573"/>
<path d="M397.645 101.802C397.645 101.802 399.405 96.3653 401.194 95.4215C402.983 94.4778 422.055 92.0269 424.689 94.1961C427.323 96.3653 421.393 103.324 421.393 103.324L397.645 101.802Z" fill="#33CD32"/>
<path d="M390.024 459.935C388.615 459.935 387.376 459.752 386.995 459.132C386.898 458.962 386.856 458.766 386.876 458.571C386.896 458.377 386.978 458.193 387.108 458.047C387.2 457.9 387.321 457.772 387.464 457.673C387.607 457.574 387.769 457.505 387.939 457.47C389.728 456.991 393.25 459.09 393.39 459.174C393.432 459.201 393.465 459.239 393.485 459.284C393.505 459.329 393.511 459.379 393.503 459.428C393.49 459.481 393.462 459.529 393.422 459.567C393.382 459.605 393.332 459.63 393.278 459.639C392.203 459.829 391.115 459.927 390.024 459.935ZM388.615 457.864C388.456 457.842 388.295 457.842 388.136 457.864C388.03 457.883 387.928 457.924 387.838 457.985C387.749 458.046 387.673 458.124 387.615 458.216C387.418 458.526 387.46 458.667 387.517 458.766C387.953 459.442 390.615 459.456 392.602 459.188C391.377 458.481 390.02 458.03 388.615 457.864Z" fill="#08085E"/>
<path d="M393.267 459.611H393.169C391.943 459.033 389.605 456.794 389.901 455.568C389.901 455.286 390.182 454.934 390.887 454.864C391.127 454.836 391.37 454.859 391.601 454.932C391.831 455.005 392.044 455.126 392.225 455.286C393.478 456.399 393.535 459.23 393.535 459.357C393.535 459.428 393.507 459.496 393.456 459.546C393.406 459.597 393.338 459.625 393.267 459.625V459.611ZM391.042 455.385H390.887C390.436 455.385 390.394 455.61 390.38 455.667C390.211 456.385 391.788 458.174 393.014 458.963C392.998 457.785 392.603 456.644 391.887 455.709C391.663 455.482 391.36 455.35 391.042 455.343V455.385Z" fill="#08085E"/>
<path d="M404.873 459.357H394.337L395.281 434.946H405.817L404.873 459.357Z" fill="#FFB573"/>
<path d="M394.505 458.145H406.013C406.218 458.14 406.417 458.21 406.573 458.343C406.729 458.475 406.831 458.661 406.859 458.864L408.169 468.231C408.196 468.466 408.174 468.704 408.103 468.93C408.033 469.155 407.915 469.363 407.758 469.54C407.601 469.717 407.408 469.859 407.192 469.956C406.977 470.053 406.743 470.104 406.506 470.104C402.351 470.034 396.379 469.794 391.153 469.794C385.054 469.794 384.279 470.132 377.067 470.132C372.743 470.132 371.898 465.752 373.743 465.357C382.194 463.554 384.349 463.357 391.843 458.962C392.64 458.453 393.56 458.17 394.505 458.145Z" fill="#33CD32"/>
<path d="M364.26 127.115C364.708 127.36 365.085 127.718 365.354 128.152C365.623 128.587 365.775 129.083 365.795 129.594L365.866 131.946C365.897 132.542 365.743 133.132 365.425 133.637C365.107 134.141 364.641 134.535 364.091 134.764L359.358 136.75C358.018 137.305 356.53 137.394 355.132 137.003L349.174 135.299C348.549 135.05 348.009 134.627 347.617 134.08C347.225 133.533 346.998 132.886 346.963 132.214L346.765 128.876C346.735 128.381 346.81 127.885 346.984 127.42C347.158 126.956 347.427 126.533 347.775 126.18C348.123 125.826 348.542 125.55 349.004 125.369C349.466 125.188 349.96 125.106 350.456 125.129L353.273 125.256C357.04 124.566 360.929 125.225 364.26 127.115Z" fill="#FFB573"/>
<path d="M436.411 116.86C434.473 120.1 432.293 123.189 429.889 126.1C427.464 129.05 424.792 131.787 421.903 134.284C416.289 138.998 410.177 143.083 403.676 146.469L403.098 146.778C401.81 147.486 400.313 147.716 398.872 147.426C395.717 146.807 392.576 146.018 389.435 145.299C386.294 144.581 383.195 143.637 380.096 142.665C376.997 141.693 373.926 140.651 370.884 139.44C369.363 138.834 367.87 138.172 366.362 137.496C364.855 136.82 363.432 136.087 361.77 135.214C360.94 134.754 360.302 134.012 359.971 133.123C359.641 132.233 359.64 131.254 359.968 130.364C360.297 129.473 360.933 128.73 361.763 128.268C362.592 127.807 363.559 127.657 364.489 127.847L364.869 127.932L369.165 128.805C370.658 129.101 372.166 129.34 373.673 129.594C376.687 130.101 379.716 130.57 382.758 131.002C385.787 131.453 388.843 131.805 391.9 132.2L401.07 133.228L396.238 134.186C401.582 130.739 406.628 126.852 411.324 122.565C413.509 120.475 415.56 118.25 417.466 115.902C419.392 113.514 421.193 111.027 422.861 108.451C424.039 106.789 425.809 105.64 427.807 105.24C429.805 104.839 431.88 105.218 433.608 106.298C435.336 107.378 436.586 109.078 437.102 111.049C437.618 113.02 437.361 115.114 436.383 116.902L436.411 116.86Z" fill="#FFB573"/>
<path d="M379.406 110.085C377.251 121.466 375.899 144.863 382.223 191.177H438.566C435.802 165.314 436.105 139.215 439.468 113.423C439.729 111.52 439.601 109.583 439.09 107.73C438.58 105.878 437.699 104.148 436.501 102.647C435.302 101.145 433.811 99.9027 432.117 98.9948C430.424 98.0869 428.564 97.5325 426.65 97.3652C425.438 97.2666 424.213 97.1821 423.002 97.1258C415.026 96.6617 407.031 96.6617 399.056 97.1258C396.408 97.3652 393.816 97.7456 391.506 98.154C388.516 98.6786 385.757 100.101 383.595 102.232C381.434 104.364 379.973 107.103 379.406 110.085Z" fill="#08085E"/>
<path opacity="0.2" d="M395.281 434.96L394.788 447.539H405.338L405.831 434.96H395.281Z" fill="black"/>
<path d="M425.015 64.6444C422.31 74.758 421.226 80.8008 415 85.0125C405.619 91.323 393.871 84.0688 393.561 73.3635C393.237 63.7147 397.717 48.812 408.563 46.7695C410.953 46.3099 413.42 46.4685 415.732 47.2304C418.043 47.9922 420.121 49.3321 421.769 51.1227C423.418 52.9134 424.581 55.0955 425.149 57.4619C425.717 59.8284 425.671 62.3008 425.015 64.6444Z" fill="#FFB573"/>
<path d="M398.956 66.5458C397.153 62.5595 399.576 55.9955 402.548 54.2348C400.35 52.46 398.096 50.7274 398.956 46.5157C399.815 42.3041 408.097 37.0501 413.042 40.7265C417.986 44.4029 437.227 38.853 431.283 52.305C444.58 57.3196 427.761 77.8708 419 83.1248C410.238 88.3788 402.815 77.9694 398.956 66.5458Z" fill="#4E2512"/>
<path d="M406.421 64.9262C405.796 67.4477 404.361 69.6944 402.336 71.3212C399.646 73.4341 397.547 71.4902 397.66 68.3773C397.758 65.5601 399.279 61.109 402.28 60.1934C405.28 59.2778 407.125 61.8696 406.421 64.9262Z" fill="#FFB573"/>
<path d="M506.05 420.706L496.711 425.213L484.09 403.746L493.429 399.239L506.05 420.706Z" fill="#FFB573"/>
<path d="M491.445 425.79C490.431 426.706 489.36 427.438 488.628 427.199C488.388 427.199 488.078 426.931 487.98 426.326C487.927 425.976 488.007 425.619 488.205 425.326C489.219 423.762 493.234 422.959 493.403 422.931C493.45 422.92 493.499 422.925 493.542 422.945C493.586 422.966 493.621 423 493.642 423.044C493.67 423.088 493.684 423.139 493.684 423.192C493.684 423.244 493.67 423.295 493.642 423.339C492.981 424.218 492.246 425.038 491.445 425.79ZM488.952 425.297C488.829 425.405 488.72 425.528 488.628 425.664C488.507 425.841 488.452 426.055 488.473 426.269C488.473 426.636 488.684 426.72 488.783 426.748C489.557 426.959 491.6 425.171 492.825 423.635C491.446 423.929 490.139 424.494 488.98 425.297H488.952Z" fill="#08085E"/>
<path d="M493.643 423.424H493.558C492.262 423.818 489.009 423.706 488.417 422.621C488.276 422.368 488.22 421.959 488.685 421.438C488.843 421.254 489.04 421.107 489.261 421.007C489.483 420.907 489.724 420.857 489.966 420.86C491.629 420.86 493.586 422.889 493.671 422.987C493.689 423.025 493.698 423.066 493.698 423.107C493.698 423.148 493.689 423.189 493.671 423.227C493.681 423.26 493.683 423.294 493.678 423.328C493.673 423.362 493.661 423.395 493.643 423.424ZM489.121 421.748L489.023 421.86C488.713 422.199 488.797 422.353 488.825 422.41C489.178 423.058 491.544 423.325 492.981 423.086C492.186 422.216 491.126 421.632 489.966 421.424C489.655 421.428 489.356 421.543 489.121 421.748Z" fill="#08085E"/>
<path d="M493.569 421.508L502.091 413.761C502.246 413.629 502.444 413.557 502.647 413.557C502.851 413.557 503.048 413.629 503.204 413.761L510.472 419.818C510.649 419.975 510.791 420.168 510.888 420.384C510.985 420.601 511.036 420.835 511.036 421.072C511.036 421.309 510.985 421.543 510.888 421.759C510.791 421.975 510.649 422.168 510.472 422.325C507.359 425.058 502.767 428.903 498.894 432.411C494.386 436.51 494.034 437.27 488.738 442.088C485.526 444.989 481.962 442.327 483.103 440.792C488.104 433.749 489.625 432.171 492.203 423.889C492.435 422.986 492.907 422.164 493.569 421.508Z" fill="#33CD32"/>
<path opacity="0.2" d="M484.09 403.761L490.597 414.818L499.936 410.31L493.443 399.239L484.09 403.761Z" fill="black"/>
<path d="M402.167 191.177C402.167 191.177 419.802 272.17 426.55 302.229C433.945 335.148 483.653 412.352 483.653 412.352L500.81 403.38C500.81 403.38 468.906 338.331 456.552 300.553C451.059 265.339 438.551 191.205 438.551 191.205L402.167 191.177Z" fill="#08085E"/>
<path opacity="0.5" d="M402.167 191.177C402.167 191.177 419.802 272.17 426.55 302.229C433.945 335.148 483.653 412.352 483.653 412.352L500.81 403.38C500.81 403.38 468.906 338.331 456.552 300.553C451.059 265.339 438.551 191.205 438.551 191.205L402.167 191.177Z" fill="black"/>
<path d="M478.963 409C478.892 409 482.794 415.283 482.794 415.283L502.866 404.704L500.81 398.366L478.963 409Z" fill="#08085E"/>
<path opacity="0.3" d="M412.563 228.716C425.832 230.476 427.368 277.255 427.128 304.695C426.945 303.821 426.748 303.004 426.579 302.215C422.903 285.805 415.972 254.183 410.437 228.871C411.124 228.654 411.852 228.601 412.563 228.716Z" fill="black"/>
<path d="M382.167 191.177C382.167 191.177 379.618 270.057 380.505 302.159C381.421 335.556 390.365 445.102 390.365 445.102H408.339C408.339 445.102 410.705 337.557 412.677 304.708C414.804 268.902 419.297 191.177 419.297 191.177H382.167Z" fill="#08085E"/>
<path opacity="0.5" d="M382.167 191.177C382.167 191.177 379.618 270.057 380.505 302.159C381.421 335.556 390.365 445.102 390.365 445.102H408.339C408.339 445.102 410.705 337.557 412.677 304.708C414.804 268.902 419.297 191.177 419.297 191.177H382.167Z" fill="black"/>
<path d="M388.206 437.989C388.122 437.989 388.601 445.398 388.601 445.398H410.335L411.462 438.792L388.206 437.989Z" fill="#08085E"/>
<path d="M330.864 144.3C331.368 144.395 331.837 144.62 332.225 144.954C332.613 145.288 332.907 145.718 333.076 146.201L333.851 148.413C334.047 148.968 334.071 149.57 333.917 150.138C333.764 150.707 333.441 151.216 332.991 151.596L329.076 154.921C327.95 155.863 326.542 156.404 325.075 156.456L319.004 156.625C318.333 156.577 317.69 156.338 317.151 155.936C316.612 155.534 316.199 154.986 315.962 154.357L314.764 151.23C314.588 150.767 314.511 150.272 314.537 149.778C314.564 149.283 314.695 148.8 314.921 148.359C315.147 147.918 315.462 147.529 315.848 147.218C316.234 146.907 316.68 146.681 317.159 146.554L319.849 145.835C323.226 144.044 327.126 143.5 330.864 144.3Z" fill="#FFB573"/>
<path d="M394.25 113.748C393.08 118.044 391.785 122.326 390.489 126.608C389.193 130.89 387.784 135.144 386.263 139.384C384.742 143.624 383.192 147.835 381.431 152.061C380.558 154.188 379.643 156.287 378.614 158.47C377.542 160.769 376.328 162.998 374.98 165.147L374.656 165.654C373.981 166.715 373.011 167.555 371.865 168.073C370.719 168.591 369.447 168.764 368.205 168.57C366.43 168.288 364.655 168.049 362.894 167.71C361.134 167.372 359.387 167.02 357.641 166.555C355.894 166.091 354.175 165.654 352.457 165.076C350.738 164.499 349.048 163.921 347.372 163.273C344.012 161.935 340.758 160.343 337.639 158.512C336.071 157.582 334.553 156.571 333.089 155.484C332.342 154.949 331.68 154.371 330.906 153.78C330.539 153.484 330.187 153.188 329.835 152.85C329.483 152.512 329.173 152.23 328.694 151.751C328.019 151.098 327.599 150.225 327.512 149.29C327.425 148.354 327.676 147.419 328.219 146.652C328.762 145.886 329.562 145.34 330.474 145.112C331.385 144.885 332.348 144.991 333.188 145.413L333.835 145.737L335.667 146.666C336.343 146.99 337.075 147.328 337.737 147.624C339.146 148.244 340.554 148.765 342.047 149.286C344.98 150.303 347.966 151.159 350.992 151.85C354.02 152.526 357.091 153.061 360.176 153.456C361.697 153.681 363.275 153.766 364.81 153.949L369.473 154.244L362.711 157.653C363.582 155.977 364.353 154.251 365.021 152.484C365.768 150.582 366.515 148.61 367.219 146.61C368.627 142.595 369.937 138.468 371.247 134.327L375.079 121.819L378.882 109.24C379.461 107.202 380.826 105.478 382.676 104.446C384.527 103.415 386.711 103.161 388.749 103.74C390.787 104.319 392.511 105.684 393.543 107.534C394.574 109.385 394.829 111.569 394.25 113.607V113.748Z" fill="#FFB573"/>
<path d="M402.942 109.31C407.168 123.227 388.857 142.299 388.857 142.299L368.812 132.777C368.812 132.777 371.066 116.226 379.546 106.296C390.026 94.0551 399.731 98.7316 402.942 109.31Z" fill="#08085E"/>
<path d="M173.671 193.276C181.911 200.995 183.405 207.954 182.306 217.222C181.207 226.491 168.84 229.266 168.84 229.266L169.91 195.46L173.671 193.276Z" fill="#33CD32"/>
<path d="M146.567 458.541L157.849 458.372L157.145 432.144L145.862 432.313L146.567 458.541Z" fill="#FFC3BD"/>
<path d="M157.981 457.118L145.656 457.315C145.438 457.314 145.228 457.394 145.066 457.54C144.904 457.686 144.803 457.887 144.782 458.104L143.712 468.175C143.69 468.431 143.722 468.688 143.806 468.93C143.89 469.173 144.024 469.395 144.199 469.582C144.375 469.769 144.587 469.918 144.824 470.017C145.06 470.117 145.315 470.166 145.571 470.161C150.008 470.021 156.403 469.654 161.995 469.57C168.531 469.471 167.883 469.739 175.56 469.57C180.18 469.499 180.926 464.795 178.94 464.4C169.897 462.597 168.982 462.499 160.812 457.907C159.953 457.402 158.977 457.13 157.981 457.118Z" fill="#33CD32"/>
<path d="M169.965 111.635C174.514 117.269 179.36 123.157 184.191 128.735C189.023 134.313 194.051 139.821 199.179 144.751L200.137 145.652L200.63 146.117L200.869 146.342L200.784 146.272L200.587 146.131C200.158 145.859 199.679 145.672 199.179 145.582C199.017 145.538 198.847 145.538 198.686 145.582C198.686 145.582 199.08 145.582 199.587 145.582C200.222 145.453 200.848 145.283 201.461 145.075C204.611 143.854 207.651 142.365 210.546 140.624C216.772 137.018 223.111 132.778 229.266 128.594L234.999 134.863C229.859 140.895 224.183 146.449 218.04 151.456C214.724 154.173 211.131 156.534 207.32 158.499C206.179 159.046 205.003 159.516 203.799 159.907C202.272 160.434 200.679 160.743 199.066 160.823C197.95 160.879 196.832 160.785 195.742 160.541C194.325 160.24 192.98 159.666 191.784 158.851L191.305 158.513L190.967 158.259L190.671 158.02L190.065 157.541L188.868 156.583C185.685 154.019 182.698 151.329 179.839 148.582C176.979 145.835 174.205 142.948 171.528 140.131C166.16 134.371 161.092 128.339 156.344 122.059L169.965 111.635Z" fill="#FFC3BD"/>
<path d="M150.3 116.396C149.455 127.298 176.063 149.821 176.063 149.821L194.234 130.961C188.461 123.16 181.848 116.017 174.514 109.663C163.555 100.746 151.216 104.437 150.3 116.396Z" fill="#08085E"/>
<path opacity="0.2" d="M165.587 125.143C170.291 125.932 181.18 138.384 181.588 144.088L176.067 149.821C169.676 144.33 163.719 138.354 158.248 131.946C160.431 128.129 163.108 124.692 165.587 125.143Z" fill="black"/>
<path d="M230.38 137.468L243.325 136.947L240.621 124.354C240.621 124.354 230.606 123.425 227.774 131.313L230.38 137.468Z" fill="#FFC3BD"/>
<path d="M252.877 129.82L249.623 124.693C249.361 124.277 248.986 123.945 248.542 123.735C248.098 123.526 247.603 123.447 247.116 123.51L240.622 124.312L243.327 136.905L251.637 133.595C251.989 133.455 252.306 133.239 252.565 132.962C252.824 132.686 253.02 132.357 253.138 131.997C253.256 131.637 253.294 131.256 253.249 130.879C253.204 130.503 253.077 130.142 252.877 129.82Z" fill="#FFC3BD"/>
<path opacity="0.2" d="M157.145 432.144L157.511 445.666L146.214 445.849L145.862 432.327L157.145 432.144Z" fill="black"/>
<path d="M164.278 104.972C146.011 102.728 127.482 104.058 109.723 108.888C108.743 109.141 107.899 109.767 107.373 110.633C106.847 111.498 106.68 112.535 106.906 113.522C116.386 155.4 112.442 198.742 113.174 207.714L173.659 206.742C177.969 155.118 173.011 122.72 170.588 110.888C170.275 109.372 169.5 107.989 168.371 106.93C167.241 105.871 165.811 105.187 164.278 104.972Z" fill="#08085E"/>
<path d="M122.637 105.325L119.82 106.001C119.743 106.021 119.672 106.062 119.616 106.119C119.559 106.175 119.519 106.246 119.499 106.323C119.479 106.401 119.48 106.482 119.501 106.559C119.523 106.636 119.565 106.706 119.623 106.761C130.117 116.41 172.304 167.063 173.529 209.672H177.177C175.938 166.429 132.666 113.889 122.975 105.437C122.932 105.393 122.878 105.36 122.82 105.341C122.761 105.321 122.698 105.316 122.637 105.325Z" fill="#33CD32"/>
<path opacity="0.2" d="M118.287 128.383C119.217 132.538 117.259 151.498 112.738 156.175C112.371 150.104 111.822 143.765 111.033 137.285L118.287 128.383Z" fill="black"/>
<path d="M127.762 76.8008C129.677 84.9283 131.847 99.4508 126.269 105.381C130.931 109.494 136.988 114.692 146.82 114.311C156.652 113.931 154.806 107.268 152.088 103.93C142.777 102.423 142.664 95.5913 144.031 89.0695L127.762 76.8008Z" fill="#FFC3BD"/>
<path opacity="0.2" d="M134.398 81.8573L144.019 89.1115C143.683 90.6267 143.475 92.1675 143.399 93.7176C139.863 93.464 134.947 89.9707 134.37 86.3225C134.108 84.8447 134.118 83.3317 134.398 81.8573Z" fill="black"/>
<path d="M125.015 64.5039C126.423 75.6176 126.705 82.2098 132.72 87.5201C141.777 95.5068 155.257 89.3654 157.173 78.0263C158.919 67.8141 156.313 51.3477 145.073 47.7136C142.587 46.9228 139.941 46.7725 137.382 47.2767C134.822 47.7809 132.431 48.9233 130.431 50.5978C128.43 52.2724 126.885 54.4249 125.938 56.8558C124.991 59.2868 124.674 61.9175 125.015 64.5039Z" fill="#FFC3BD"/>
<path d="M159.77 47.8119C160.592 48.1067 161.334 48.5884 161.938 49.2191C162.542 49.8498 162.99 50.6122 163.249 51.4461C163.288 51.6309 163.277 51.8229 163.215 52.0016C163.154 52.1802 163.045 52.3388 162.9 52.4603C162.755 52.5819 162.58 52.6618 162.394 52.6915C162.207 52.7213 162.016 52.6998 161.841 52.6293C155.84 50.0657 141.444 51.1221 141.444 51.1221C141.444 51.1221 153.854 45.8118 159.77 47.8119Z" fill="#08085E"/>
<path opacity="0.2" d="M159.77 47.8119C160.592 48.1067 161.334 48.5884 161.938 49.2191C162.542 49.8498 162.99 50.6122 163.249 51.4461C163.288 51.6309 163.277 51.8229 163.215 52.0016C163.154 52.1802 163.045 52.3388 162.9 52.4603C162.755 52.5819 162.58 52.6618 162.394 52.6915C162.207 52.7213 162.016 52.6998 161.841 52.6293C155.84 50.0657 141.444 51.1221 141.444 51.1221C141.444 51.1221 153.854 45.8118 159.77 47.8119Z" fill="black"/>
<path d="M127.678 74.4484L132.608 73.5188C132.608 73.5188 136.833 63.8982 131.903 60.912C137.538 55.0241 157.554 59.0808 154.258 52.2351C151.553 46.6008 138.932 43.2483 128.903 46.9388C118.874 50.6293 120.071 55.3903 120.071 55.3903C120.071 55.3903 112.211 61.3345 118.339 68.3352C118.409 71.3496 124.283 75.857 127.678 74.4484Z" fill="black"/>
<path d="M117.314 68.3493C117.406 68.4478 117.518 68.5249 117.643 68.5749C117.768 68.6249 117.903 68.6466 118.038 68.6385C118.172 68.6305 118.303 68.5928 118.422 68.5282C118.54 68.4636 118.643 68.3736 118.722 68.2648C120.75 65.6871 127.54 57.6863 135.991 54.3198C141.062 52.2175 146.445 50.9658 151.922 50.6152C152.086 50.6133 152.246 50.5677 152.385 50.4833C152.525 50.3988 152.64 50.2785 152.717 50.1348C152.795 49.9911 152.833 49.8293 152.827 49.6661C152.821 49.5029 152.771 49.3443 152.683 49.2067C151.369 46.5653 149.722 44.1037 147.781 41.882C145.556 39.8818 129.582 38.9804 124.92 42.0511C121.779 44.1358 112.919 53.038 112.567 57.3483C112.299 60.3767 114.144 64.9405 117.314 68.3493Z" fill="#08085E"/>
<path opacity="0.3" d="M117.314 68.3493C117.406 68.4478 117.518 68.5249 117.643 68.5749C117.768 68.6249 117.903 68.6466 118.038 68.6385C118.172 68.6305 118.303 68.5928 118.422 68.5282C118.54 68.4636 118.643 68.3736 118.722 68.2648C120.75 65.6871 127.54 57.6863 135.991 54.3198C141.062 52.2175 146.445 50.9658 151.922 50.6152C152.086 50.6133 152.246 50.5677 152.385 50.4833C152.525 50.3988 152.64 50.2785 152.717 50.1348C152.795 49.9911 152.833 49.8293 152.827 49.6661C152.821 49.5029 152.771 49.3443 152.683 49.2067C151.369 46.5653 149.722 44.1037 147.781 41.882C145.556 39.8818 129.582 38.9804 124.92 42.0511C121.779 44.1358 112.919 53.038 112.567 57.3483C112.299 60.3767 114.144 64.9405 117.314 68.3493Z" fill="white"/>
<path d="M128.228 58.7709C133.891 55.9202 140.211 54.6271 146.539 55.0241C147.234 55.0635 147.926 54.9109 148.54 54.5829C149.153 54.2549 149.665 53.7643 150.018 53.1648C151.568 50.6293 154.16 48.6573 158.709 48.0375C158.773 48.0375 158.834 48.0123 158.879 47.9674C158.923 47.9225 158.949 47.8616 158.949 47.7981C158.949 47.7346 158.923 47.6736 158.879 47.6287C158.834 47.5838 158.773 47.5586 158.709 47.5586C151.976 45.812 131.397 51.0237 128.228 58.7709Z" fill="#08085E"/>
<path d="M120.439 75.8433C121.181 77.0227 122.149 78.0433 123.288 78.8461C124.427 79.6488 125.713 80.2177 127.073 80.5198C130.722 81.3086 132.356 77.9843 131.186 74.6601C130.13 71.6598 126.961 67.6172 123.369 68.3356C122.588 68.5038 121.862 68.8628 121.254 69.3805C120.646 69.8981 120.176 70.5583 119.886 71.302C119.596 72.0457 119.495 72.8498 119.591 73.6422C119.688 74.4347 119.979 75.1909 120.439 75.8433Z" fill="#FFC3BD"/>
<path d="M138.655 318.964C139.106 262.114 126.527 207.503 126.527 207.503L173.673 206.742C173.673 206.742 168.25 288.863 166.362 323.26C164.404 359.024 161.671 442.99 161.671 442.99L142.529 443.286C142.529 443.286 136.007 363.842 138.655 318.964Z" fill="#33CD32"/>
<path opacity="0.2" d="M136.782 238.788C150.22 257.184 144.177 291.793 138.669 316.26C138.453 289.29 136.16 262.377 131.81 235.759L136.782 238.788Z" fill="black"/>
<path d="M140.129 436.384L141.34 443.751L162.92 443.399L164.173 435.595L140.129 436.384Z" fill="#08085E"/>
<path d="M160.036 458.062C159.988 458.048 159.945 458.021 159.912 457.984C159.88 457.946 159.859 457.9 159.853 457.85C159.844 457.797 159.853 457.741 159.879 457.693C159.904 457.645 159.944 457.606 159.993 457.583C160.501 457.301 165.008 454.935 166.388 455.667C166.516 455.737 166.625 455.839 166.704 455.962C166.782 456.085 166.829 456.226 166.839 456.371C166.88 456.613 166.857 456.86 166.773 457.09C166.689 457.32 166.547 457.523 166.36 457.681C165.149 458.808 161.895 458.414 160.064 458.076L160.036 458.062ZM166.036 456.104C165.177 455.822 162.74 456.794 160.951 457.681C163.459 458.062 165.318 457.921 166.008 457.287C166.126 457.18 166.216 457.046 166.27 456.896C166.324 456.746 166.341 456.585 166.318 456.428C166.318 456.368 166.3 456.31 166.268 456.26C166.235 456.21 166.189 456.17 166.135 456.146L166.036 456.104Z" fill="#08085E"/>
<path d="M160.035 458.062H159.965C159.925 458.037 159.892 458.002 159.872 457.959C159.852 457.916 159.845 457.869 159.852 457.822C159.852 457.695 160.12 454.639 161.528 453.442C161.729 453.265 161.964 453.13 162.218 453.045C162.472 452.96 162.74 452.928 163.007 452.949C163.754 453.019 163.965 453.385 164.022 453.681C164.247 454.963 161.585 457.456 160.232 458.09C160.199 458.1 160.165 458.102 160.131 458.097C160.097 458.092 160.064 458.08 160.035 458.062ZM163.233 453.512H162.965C162.769 453.494 162.571 453.517 162.384 453.58C162.197 453.643 162.026 453.745 161.881 453.878C161.061 454.875 160.569 456.099 160.472 457.386C161.881 456.526 163.655 454.568 163.514 453.808C163.486 453.709 163.458 453.582 163.247 453.512H163.233Z" fill="#08085E"/>
<path d="M84.3252 458.541L95.6361 458.372L98.3406 432.144L87.0438 432.313L84.3252 458.541Z" fill="#FFC3BD"/>
<path d="M96.4671 457.118L84.142 457.315C83.9234 457.311 83.7114 457.39 83.5491 457.537C83.3869 457.683 83.2866 457.886 83.2687 458.104L82.1841 468.176C82.1646 468.431 82.1983 468.687 82.2831 468.928C82.3679 469.17 82.502 469.391 82.6769 469.578C82.8517 469.764 83.0635 469.913 83.2988 470.013C83.534 470.114 83.7876 470.164 84.0434 470.162C88.4805 470.021 89.875 469.655 95.467 469.57C102.003 469.471 98.9885 469.739 106.651 469.57C111.285 469.5 112.032 464.809 110.046 464.401C103.764 463.077 102.116 460.583 99.2843 457.907C98.4773 457.3 97.4718 457.019 96.4671 457.118Z" fill="#33CD32"/>
<path opacity="0.2" d="M98.3402 432.144L96.9457 445.666L85.6348 445.849L87.0293 432.327L98.3402 432.144Z" fill="black"/>
<path d="M99.2418 317.542C105.651 266.72 102.059 232.689 113.229 207.672L153.191 207.024C153.191 207.024 132.696 287.314 124.892 321.232C116.793 356.447 101.397 439.553 101.397 439.553L83.1699 439.821C83.1699 439.821 90.7199 359.644 99.2418 317.542Z" fill="#33CD32"/>
<path d="M81.2109 436.384L82.366 443.751L102.706 443.399L103.889 435.595L81.2109 436.384Z" fill="#08085E"/>
<path d="M94.2234 457.921C94.1744 457.921 94.1262 457.908 94.084 457.884C94.0417 457.859 94.0071 457.823 93.9839 457.78C93.9536 457.734 93.9375 457.68 93.9375 457.625C93.9375 457.57 93.9536 457.516 93.9839 457.47C94.3783 457.033 97.7871 453.244 99.3506 453.484C99.4954 453.504 99.6325 453.561 99.7485 453.65C99.8646 453.739 99.9556 453.856 100.013 453.991C100.126 454.208 100.186 454.45 100.186 454.695C100.186 454.94 100.126 455.182 100.013 455.399C99.252 456.808 96.0686 457.611 94.2375 457.921H94.2234ZM99.1957 454.005C98.2942 454.005 96.3785 455.794 94.9699 457.23C97.449 456.723 99.1957 455.963 99.576 455.132C99.6524 454.991 99.6925 454.834 99.6925 454.674C99.6925 454.514 99.6524 454.356 99.576 454.216C99.5534 454.162 99.5165 454.115 99.4694 454.08C99.4223 454.046 99.3666 454.024 99.3084 454.019L99.1957 454.005Z" fill="#08085E"/>
<path d="M94.2277 457.921C94.1822 457.909 94.1403 457.887 94.1058 457.855C94.0714 457.823 94.0455 457.782 94.0305 457.738C94.0305 457.611 93.1853 454.653 94.115 453.047C94.2386 452.81 94.4101 452.601 94.6186 452.434C94.8271 452.267 95.0682 452.145 95.3264 452.075C96.0448 451.892 96.3828 452.16 96.5237 452.428C97.1857 453.54 95.5377 456.794 94.4812 457.851C94.4467 457.88 94.4061 457.902 94.3623 457.914C94.3185 457.926 94.2725 457.929 94.2277 457.921ZM95.6363 452.54H95.3546C95.166 452.59 94.9897 452.678 94.8369 452.799C94.6842 452.92 94.5583 453.072 94.4671 453.245C94.0264 454.461 93.9723 455.785 94.3122 457.034C95.3123 455.752 96.3406 453.301 95.9603 452.639C95.9216 452.593 95.8704 452.559 95.8129 452.541C95.7554 452.524 95.694 452.523 95.6363 452.54Z" fill="#08085E"/>
<path d="M142.566 164.922C142.964 164.29 143.15 163.548 143.097 162.803C143.043 162.058 142.754 161.35 142.27 160.781L140.284 158.597C140.138 158.438 140.044 158.239 140.014 158.025C139.984 157.811 140.019 157.593 140.115 157.4C140.355 156.928 140.446 156.395 140.376 155.87C140.306 155.345 140.077 154.854 139.721 154.463C139.364 154.071 138.897 153.797 138.381 153.678C137.865 153.558 137.325 153.599 136.833 153.794C136.632 153.874 136.411 153.892 136.2 153.844C135.989 153.796 135.797 153.686 135.65 153.527L133.664 151.343C133.138 150.809 132.457 150.456 131.717 150.335C130.978 150.213 130.219 150.329 129.551 150.667L128.959 150.935L135.607 158.217L142.256 165.542L142.566 164.922Z" fill="white"/>
<path d="M149.585 172.523L122.653 143.019L83.3909 178.858L110.322 208.362L149.585 172.523Z" fill="#33CD32"/>
<path d="M118.031 124.848C114.538 131.538 110.988 138.412 107.579 145.216C104.171 152.019 100.79 158.865 97.7193 165.697C96.9727 167.401 96.2121 169.105 95.5501 170.81L95.0289 172.077L94.9021 172.401C94.8523 172.074 94.7673 171.753 94.6486 171.444C94.4514 170.965 94.0992 170.725 94.1133 170.81C94.1274 170.894 94.3105 171.134 94.7331 171.401C95.8934 172.122 97.1437 172.685 98.4517 173.078C101.811 174.09 105.244 174.839 108.72 175.317C110.551 175.585 112.397 175.838 114.256 176.064L119.89 176.641L120.51 185.093C118.425 185.544 116.468 185.839 114.439 186.107C112.411 186.375 110.382 186.586 108.326 186.699C106.269 186.811 104.185 186.868 102.072 186.811C99.8729 186.774 97.6794 186.581 95.5078 186.234C92.9956 185.879 90.5448 185.177 88.2254 184.149C86.6898 183.475 85.2651 182.573 83.9997 181.473C82.3238 180.004 81.049 178.133 80.2951 176.036C79.4484 173.399 79.4043 170.57 80.1683 167.908L80.3515 167.26L80.4642 166.894L80.9431 165.485C81.5628 163.513 82.239 161.612 82.9292 159.71C85.7463 152.132 88.8734 144.878 92.2117 137.708C95.5501 130.538 99.1138 123.622 103.001 116.579L118.031 124.848Z" fill="#FFC3BD"/>
<path d="M108.437 109.368C97.9851 112.593 87.0264 140.455 87.0264 140.455L109.761 153.132C114.036 145.138 117.8 136.882 121.03 128.412C126.368 114.03 121.072 105.452 108.437 109.368Z" fill="#08085E"/>
<path d="M135.299 181.994L130.848 179.022C129.86 178.361 128.74 177.923 127.566 177.74L120.973 176.726C120.097 176.586 119.199 176.7 118.385 177.054C117.571 177.409 116.876 177.989 116.381 178.726L114.128 182.036C113.48 187.67 123.537 190.488 123.537 190.488L128.706 192.939C129.556 193.34 130.52 193.427 131.428 193.185C132.336 192.942 133.128 192.386 133.665 191.614L136.482 187.6C136.783 187.158 136.992 186.659 137.095 186.134C137.199 185.609 137.195 185.068 137.085 184.545C136.974 184.021 136.759 183.525 136.452 183.087C136.145 182.649 135.753 182.277 135.299 181.994Z" fill="#FFC3BD"/>
<path d="M325.543 55.9121L324.839 64.0396" stroke="#DEB085" stroke-miterlimit="10"/>
<path d="M317.031 25.261L328.159 26.247L326.117 49.3336" stroke="#DEB085" stroke-miterlimit="10"/>
<path d="M323.586 30.0468L211.795 20.2271L205.303 94.1325L317.094 103.952L323.586 30.0468Z" fill="#DEB085"/>
<path opacity="0.2" d="M263.255 24.7567L246.179 23.2567L244.864 38.2286L261.94 39.7287L263.255 24.7567Z" fill="white"/>
<path opacity="0.2" d="M230.855 74.692L213.512 73.1686L212.176 88.379L229.519 89.9025L230.855 74.692Z" fill="white"/>
<g opacity="0.2">
<path d="M236.352 76.1952L251.706 77.6038L250.55 90.8303L235.183 89.4218L236.352 76.1952ZM235.436 75.1246L234.112 90.3232L251.452 91.8586L252.79 76.6459L235.436 75.1246Z" fill="white"/>
</g>
<path opacity="0.1" d="M323.578 30.0461L297.619 27.7659L291.127 101.671L317.086 103.952L323.578 30.0461Z" fill="black"/>
<path opacity="0.1" d="M205.291 94.1546L317.076 103.987L319.583 75.505L205.291 94.1546Z" fill="black"/>
</svg>
