<svg width="30" height="35" viewBox="0 0 30 35" fill="none" xmlns="http://www.w3.org/2000/svg">
<path d="M29.3724 30.0424L23.3252 23.2189C24.8231 20.8468 25.7145 17.9549 25.7145 14.826C25.7145 6.82608 19.947 0.318054 12.8573 0.318054C5.76755 0.318054 0 6.82608 0 14.826C0 22.8259 5.76755 29.334 12.8573 29.334C15.6301 29.334 18.193 28.3293 20.2952 26.6379L26.3424 33.4615C27.1781 34.4057 28.5367 34.4057 29.3724 33.4615C30.2092 32.5172 30.2092 30.9867 29.3724 30.0424V30.0424ZM2.14288 14.826C2.14288 8.1596 6.94935 2.73605 12.8573 2.73605C18.7652 2.73605 23.5716 8.1596 23.5716 14.826C23.5716 21.4924 18.7652 26.916 12.8573 26.916C6.94935 26.916 2.14288 21.4924 2.14288 14.826V14.826Z" fill="#33CD32"/>
<path d="M11.786 22.8761L4.93518 19.5635C4.54089 19.3725 4.28589 18.9348 4.28589 18.4524V10.7451L11.786 14.4107V22.8761Z" fill="#33CD32"/>
<path d="M5.39917 8.65372L12.4353 5.2516C12.7053 5.12103 13.0096 5.12103 13.2796 5.2516L20.3554 8.67306L12.8596 12.3L5.39917 8.65372Z" fill="#33CD32"/>
<path d="M21.4293 10.7838V18.4537C21.4293 18.9373 21.1743 19.375 20.78 19.5648L13.9292 22.8774V14.4144L21.4293 10.7838Z" fill="#33CD32"/>
</svg>
