<svg width="13" height="13" viewBox="0 0 13 13" fill="none" xmlns="http://www.w3.org/2000/svg">
<path d="M6.5 0C2.91027 0 0 2.91027 0 6.5C0 10.0897 2.91027 13 6.5 13C10.0897 13 13 10.0897 13 6.5C13 2.91027 10.0897 0 6.5 0ZM7.58333 10.7792H5.41667V5.57917H7.58333V10.7792ZM6.5 4.3875C6.21268 4.3875 5.93713 4.27336 5.73397 4.0702C5.5308 3.86703 5.41667 3.59148 5.41667 3.30417C5.41667 3.01685 5.5308 2.7413 5.73397 2.53813C5.93713 2.33497 6.21268 2.22083 6.5 2.22083C6.78732 2.22083 7.06287 2.33497 7.26603 2.53813C7.4692 2.7413 7.58333 3.01685 7.58333 3.30417C7.58333 3.59148 7.4692 3.86703 7.26603 4.0702C7.06287 4.27336 6.78732 4.3875 6.5 4.3875Z" fill="#08085E"/>
</svg>
