<?xml version="1.0" encoding="utf-8"?>
<svg version="1.1" id="Layer_1" x="0px" y="0px" width="100%" viewBox="0 108.379 1910.561 1828.621" enable-background="new 0 0 5357 1937" xmlns="http://www.w3.org/2000/svg">
  <path fill="#939597" opacity="1.000000" stroke="none" d=" M958.245911,1612.000000 C958.245850,1531.344971 958.307129,1451.689819 958.230469,1372.034790 C958.129761,1267.391846 957.977478,1162.748657 957.693726,1058.105957 C957.653259,1043.165039 956.962280,1028.214844 956.135498,1013.293030 C955.831238,1007.802551 957.919312,1004.794678 962.569702,1002.299561 C981.921265,991.916931 1001.114685,981.239868 1020.391724,970.717834 C1077.639526,939.470276 1134.889771,908.227051 1192.157471,877.015869 C1253.240234,843.725342 1314.355957,810.495239 1375.435669,777.199158 C1448.484741,737.378296 1521.517212,697.526917 1594.539429,657.656616 C1603.591187,652.714355 1612.520386,647.547668 1621.548950,642.562317 C1622.636353,641.961914 1623.992554,641.848450 1626.242310,641.228699 C1626.242310,645.466980 1626.248169,649.036743 1626.241455,652.606506 C1626.079956,738.918884 1626.059448,825.231812 1625.701416,911.543335 C1625.483154,964.149353 1624.634766,1016.752380 1624.272339,1069.358154 C1623.953247,1115.677246 1624.043945,1161.999146 1623.719849,1208.318237 C1623.368042,1258.591187 1622.627930,1308.861572 1622.399048,1359.134644 C1622.372192,1365.056152 1620.185669,1368.056152 1615.313110,1370.709351 C1558.319092,1401.744507 1501.380249,1432.881470 1444.481934,1464.091919 C1372.996948,1503.303345 1301.598999,1542.673584 1230.096436,1581.853149 C1162.676025,1618.795776 1095.159302,1655.562500 1027.705200,1692.444214 C1008.435547,1702.980225 989.243042,1713.657471 969.999207,1724.240967 C967.143127,1725.811646 964.198608,1727.221680 960.385681,1729.171021 C960.132263,1725.802612 959.912109,1723.317017 959.771301,1720.826904 C959.696167,1719.498047 959.774719,1718.161133 959.755432,1716.828247 C959.254517,1682.218872 958.749878,1647.609375 958.245911,1612.000000 z"/>
  <path fill="#08085E" opacity="1.000000" stroke="none" d=" M802.391418,951.687012 C837.933533,971.284851 872.800842,990.580933 907.816040,1009.958862 C907.816040,1249.617188 907.816040,1488.992554 907.816040,1729.613159 C902.884705,1727.040771 898.809814,1725.005859 894.817871,1722.819214 C818.785400,1681.171631 742.744446,1639.539429 666.743408,1597.834473 C592.779236,1557.247192 518.873657,1516.553345 444.913300,1475.959229 C382.596130,1441.755737 320.289124,1407.532715 257.812103,1373.623291 C251.912994,1370.421631 250.192749,1366.851562 250.191162,1360.401611 C250.161011,1238.121704 249.986008,1115.841431 249.635864,993.561829 C249.335449,888.647949 248.773071,783.734680 248.338470,678.821167 C248.294449,668.195312 248.332565,657.569153 248.332565,645.943665 C250.685471,646.812866 253.094574,647.367615 255.172546,648.519531 C305.730194,676.547058 356.225647,704.686707 406.788208,732.705261 C467.513031,766.355103 528.304321,799.884949 589.039978,833.515381 C659.947327,872.777954 730.825745,912.093018 802.391418,951.687012 z"/>
  <path fill="#32CD32" opacity="1.000000" stroke="none" d=" M1505.914307,640.010376 C1382.635986,708.603699 1260.055786,776.948486 1137.430908,845.213562 C1070.890137,882.256836 1004.235168,919.095642 937.772949,956.279175 C933.026550,958.934631 929.713623,958.936829 925.100037,956.414551 C841.053711,910.466614 756.921448,864.676086 672.807312,818.852295 C591.325317,774.462463 509.838684,730.081421 428.362885,685.680420 C380.764954,659.741577 333.179657,633.779602 285.609924,607.789062 C283.296051,606.524780 281.187286,604.885132 278.257568,602.938232 C499.508270,481.684784 720.177673,360.749908 940.864502,239.805527 C1152.297852,360.057953 1363.281494,480.054626 1575.711548,600.873901 C1551.669800,614.389038 1529.131836,627.058777 1505.914307,640.010376 z"/>
</svg>