<svg width="20" height="22" viewBox="0 0 20 22" fill="none" xmlns="http://www.w3.org/2000/svg">
<path fill-rule="evenodd" clip-rule="evenodd" d="M19.25 6.1875V19.25C19.25 19.9793 18.9603 20.6788 18.4445 21.1945C17.9288 21.7103 17.2293 22 16.5 22H15.125V20.625H16.5C16.8647 20.625 17.2144 20.4801 17.4723 20.2223C17.7301 19.9644 17.875 19.6147 17.875 19.25V6.1875H15.125C14.578 6.1875 14.0534 5.9702 13.6666 5.58341C13.2798 5.19661 13.0625 4.67201 13.0625 4.125V1.375H5.5C5.13533 1.375 4.78559 1.51987 4.52773 1.77773C4.26987 2.03559 4.125 2.38533 4.125 2.75V15.125H2.75V2.75C2.75 2.02065 3.03973 1.32118 3.55546 0.805456C4.07118 0.289731 4.77065 0 5.5 0L13.0625 0L19.25 6.1875ZM2.2 16.2938H0V21.7924H1.08763V19.9471H2.19175C2.58637 19.9471 2.92188 19.8687 3.19825 19.7092C3.47738 19.5484 3.6905 19.3311 3.83488 19.0575C3.98473 18.7704 4.06081 18.4505 4.05625 18.1266C4.05625 17.7829 3.98338 17.4721 3.839 17.1957C3.6954 16.921 3.47584 16.6933 3.2065 16.5399C2.9315 16.3749 2.59738 16.2938 2.2 16.2938ZM2.94937 18.1266C2.95433 18.3078 2.91417 18.4873 2.8325 18.6491C2.75923 18.79 2.64518 18.9055 2.50525 18.9805C2.34518 19.0597 2.16813 19.0984 1.98962 19.0933H1.0835V17.16H1.991C2.29075 17.16 2.52588 17.2425 2.695 17.4089C2.86413 17.5766 2.94937 17.8159 2.94937 18.1266ZM4.62275 16.2938V21.7924H6.63025C7.18162 21.7924 7.6395 21.6824 8.0025 21.4665C8.36984 21.2467 8.65669 20.9146 8.82063 20.5191C8.99938 20.1066 9.09013 19.6089 9.09013 19.0286C9.09013 18.4511 9.00075 17.9589 8.82063 17.5505C8.65862 17.1596 8.37452 16.8316 8.01075 16.6155C7.64775 16.401 7.18713 16.2938 6.62888 16.2938H4.62275ZM5.71037 17.1806H6.4845C6.8255 17.1806 7.10325 17.2494 7.32187 17.3896C7.5488 17.538 7.72001 17.7576 7.80862 18.0139C7.91725 18.2902 7.97087 18.6354 7.97087 19.0492C7.97514 19.3235 7.94371 19.5971 7.87738 19.8633C7.82839 20.0731 7.73664 20.2707 7.60787 20.4435C7.48824 20.5977 7.32974 20.7173 7.14862 20.79C6.93641 20.8694 6.71103 20.9077 6.4845 20.9028H5.71037V17.1806ZM10.857 19.6047V21.7924H9.77075V16.2938H13.2743V17.1916H10.857V18.7275H13.0652V19.6047H10.857Z" fill="black"/>
</svg>
