<svg width="18" height="20" viewBox="0 0 18 20" fill="none" xmlns="http://www.w3.org/2000/svg">
<path d="M8.75 0.892105C6.4117 0.892105 4.51613 2.81847 4.51613 5.19476C4.51613 7.57106 6.4117 9.49742 8.75 9.49742C11.0883 9.49742 12.9839 7.57106 12.9839 5.19476C12.9839 2.81847 11.0883 0.892105 8.75 0.892105Z" fill="black"/>
<path d="M4.23387 11.7922C1.89557 11.7922 0 13.7185 0 16.0948V17.4582C0 18.3225 0.61632 19.0594 1.45563 19.1986C6.28656 20.0002 11.2134 20.0002 16.0444 19.1986C16.8837 19.0594 17.5 18.3225 17.5 17.4582V16.0948C17.5 13.7185 15.6044 11.7922 13.2661 11.7922H12.8813C12.673 11.7922 12.466 11.8256 12.268 11.8914L11.2908 12.2156C9.63982 12.7635 7.86018 12.7635 6.20921 12.2156L5.23202 11.8914C5.03401 11.8256 4.82702 11.7922 4.61872 11.7922H4.23387Z" fill="black"/>
</svg>
