<svg width="27" height="27" viewBox="0 0 27 27" fill="none" xmlns="http://www.w3.org/2000/svg">
<path d="M26.1175 17.5548C25.8499 17.0428 25.4365 16.6482 24.9446 16.4355C24.4527 16.2228 23.9114 16.2045 23.4091 16.3835L22.216 16.811V2.14297C22.2152 1.64991 22.0411 1.17735 21.7318 0.829027C21.4226 0.480699 21.0034 0.285064 20.5665 0.285065H5.85228C5.41532 0.285064 4.99622 0.480699 4.68696 0.829027C4.37771 1.17735 4.20357 1.64991 4.20278 2.14297V14.9329C3.74165 15.0323 3.27331 15.083 2.80384 15.0843H0.745703C0.54793 15.0843 0.358258 15.173 0.218411 15.3308C0.0785649 15.4886 0 15.7026 0 15.9258C0 16.1489 0.0785649 16.363 0.218411 16.5208C0.358258 16.6786 0.54793 16.7672 0.745703 16.7672H2.80384C4.3741 16.7692 5.91717 16.3049 7.27806 15.4209L13.0349 11.6614C13.27 11.542 13.5357 11.5241 13.7817 11.611C14.0277 11.6979 14.2369 11.8837 14.3696 12.133C14.5023 12.3824 14.5494 12.678 14.5019 12.9639C14.4543 13.2498 14.3155 13.5061 14.1117 13.6842L8.61735 17.3327C8.31212 17.5367 8.07458 17.8481 7.9411 18.219C7.80761 18.5899 7.78554 19 7.87826 19.3864C7.97098 19.7728 8.17338 20.1143 8.45447 20.3585C8.73557 20.6028 9.07986 20.7364 9.43464 20.7388H14.759H14.7828C15.7224 20.7401 16.6564 20.5754 17.5509 20.2508L23.8655 17.9621C24.0442 17.8985 24.2368 17.9052 24.4118 17.981C24.5867 18.0568 24.7338 18.1972 24.8289 18.3794C24.8887 18.4923 24.9261 18.6185 24.9384 18.7492C24.9508 18.8799 24.9378 19.0122 24.9005 19.1367C24.8647 19.2623 24.8055 19.3778 24.7267 19.4753C24.648 19.5729 24.5516 19.6502 24.4441 19.7022L16.1281 23.7781C16.0181 23.8293 15.9029 23.8643 15.785 23.8824L8.02973 25.0403C7.5206 25.1133 7.00356 25.0222 6.53833 24.7777L3.42725 23.1386C2.76778 22.7907 2.04935 22.6082 1.32139 22.6035H0.745703C0.54793 22.6035 0.358258 22.6921 0.218411 22.8499C0.0785649 23.0077 0 23.2217 0 23.4449C0 23.6681 0.0785649 23.8821 0.218411 24.0399C0.358258 24.1977 0.54793 24.2863 0.745703 24.2863H1.32139C1.83019 24.2879 2.33273 24.4131 2.79489 24.6532L5.90597 26.3058C6.46123 26.6003 7.06719 26.7532 7.68074 26.7534C7.86538 26.7539 8.0498 26.7393 8.23256 26.7097L15.9879 25.5552C16.2432 25.5192 16.4925 25.4409 16.7276 25.323L25.0377 21.2571C25.3368 21.1103 25.6049 20.8937 25.8246 20.6217C26.0443 20.3497 26.2105 20.0284 26.3125 19.6789C26.4144 19.3293 26.4498 18.9594 26.4162 18.5933C26.3826 18.2273 26.2808 17.8734 26.1175 17.5548ZM16.3041 1.96795C16.2691 2.86535 15.9285 3.71291 15.3534 4.33398C14.7783 4.95505 14.0129 5.30171 13.2168 5.30171C12.4208 5.30171 11.6554 4.95505 11.0803 4.33398C10.5051 3.71291 10.1646 2.86535 10.1296 1.96795H16.3041ZM17.0945 18.6621C16.3475 18.9332 15.5675 19.0706 14.7828 19.0694H14.7649H9.4406C9.42175 19.0696 9.40308 19.0652 9.38587 19.0565C9.36866 19.0479 9.3533 19.0351 9.34085 19.0191C9.32839 19.0032 9.31914 18.9844 9.3137 18.964C9.30827 18.9436 9.30679 18.9222 9.30936 18.9011C9.30888 18.8746 9.31472 18.8484 9.32626 18.8254C9.33781 18.8023 9.35463 18.7831 9.37498 18.7698L14.8604 15.1348C15.4208 14.7391 15.8227 14.1129 15.981 13.3887C16.1394 12.6644 16.0417 11.8991 15.7087 11.2547C15.3757 10.6103 14.8334 10.1375 14.1969 9.93635C13.5603 9.73521 12.8793 9.82153 12.2981 10.177L6.53833 13.9366C6.26616 14.1149 5.98421 14.2734 5.69419 14.4112V2.14297C5.69418 2.1197 5.69829 2.09666 5.70627 2.0752C5.71426 2.05375 5.72595 2.0343 5.74067 2.018C5.75539 2.00171 5.77284 1.98889 5.79201 1.98029C5.81117 1.9717 5.83166 1.9675 5.85228 1.96795H8.63823C8.63823 3.33817 9.12061 4.65228 9.97927 5.62118C10.8379 6.59008 12.0025 7.1344 13.2168 7.1344C14.4312 7.1344 15.5958 6.59008 16.4544 5.62118C17.3131 4.65228 17.7955 3.33817 17.7955 1.96795H20.5814C20.602 1.9675 20.6225 1.9717 20.6417 1.98029C20.6608 1.98889 20.6783 2.00171 20.693 2.018C20.7077 2.0343 20.7194 2.05375 20.7274 2.0752C20.7354 2.09666 20.7395 2.1197 20.7395 2.14297V17.3394L17.0945 18.6621Z" fill="#33CD32"/>
</svg>
