<svg width="18" height="16" viewBox="0 0 18 16" fill="none" xmlns="http://www.w3.org/2000/svg">
<path d="M14.1429 2.15385V3.07692H14.7857C15.6382 3.07692 16.4558 3.4011 17.0586 3.97813C17.6614 4.55517 18 5.3378 18 6.15385V10.7692C18 11.3405 17.7629 11.8883 17.341 12.2922C16.919 12.6962 16.3467 12.9231 15.75 12.9231H14.7857V13.8462C14.7857 14.4174 14.5487 14.9652 14.1267 15.3692C13.7047 15.7731 13.1325 16 12.5357 16H5.46429C4.86755 16 4.29525 15.7731 3.8733 15.3692C3.45134 14.9652 3.21429 14.4174 3.21429 13.8462V12.9231H2.25C1.65326 12.9231 1.08097 12.6962 0.65901 12.2922C0.237053 11.8883 0 11.3405 0 10.7692V6.15385C0 5.3378 0.338647 4.55517 0.941442 3.97813C1.54424 3.4011 2.3618 3.07692 3.21429 3.07692H3.85714V2.15385C3.85714 1.58261 4.0942 1.03477 4.51615 0.630847C4.93811 0.226923 5.51041 0 6.10714 0H11.8929C12.4896 0 13.0619 0.226923 13.4838 0.630847C13.9058 1.03477 14.1429 1.58261 14.1429 2.15385ZM5.14286 2.15385V3.07692H12.8571V2.15385C12.8571 1.90903 12.7555 1.67424 12.5747 1.50113C12.3939 1.32802 12.1486 1.23077 11.8929 1.23077H6.10714C5.8514 1.23077 5.60613 1.32802 5.42529 1.50113C5.24445 1.67424 5.14286 1.90903 5.14286 2.15385ZM4.5 13.8462C4.5 14.091 4.60159 14.3258 4.78243 14.4989C4.96327 14.672 5.20854 14.7692 5.46429 14.7692H12.5357C12.7915 14.7692 13.0367 14.672 13.2176 14.4989C13.3984 14.3258 13.5 14.091 13.5 13.8462V10.1538C13.5 9.90903 13.3984 9.67424 13.2176 9.50113C13.0367 9.32802 12.7915 9.23077 12.5357 9.23077H5.46429C5.20854 9.23077 4.96327 9.32802 4.78243 9.50113C4.60159 9.67424 4.5 9.90903 4.5 10.1538V13.8462ZM14.7857 11.6923H15.75C16.0057 11.6923 16.251 11.5951 16.4319 11.4219C16.6127 11.2488 16.7143 11.014 16.7143 10.7692V6.15385C16.7143 5.66422 16.5111 5.19464 16.1494 4.84842C15.7877 4.5022 15.2972 4.30769 14.7857 4.30769H3.21429C2.7028 4.30769 2.21226 4.5022 1.85058 4.84842C1.4889 5.19464 1.28571 5.66422 1.28571 6.15385V10.7692C1.28571 11.014 1.38731 11.2488 1.56815 11.4219C1.74899 11.5951 1.99426 11.6923 2.25 11.6923H3.21429V10.1538C3.21429 9.58261 3.45134 9.03477 3.8733 8.63085C4.29525 8.22692 4.86755 8 5.46429 8H12.5357C13.1325 8 13.7047 8.22692 14.1267 8.63085C14.5487 9.03477 14.7857 9.58261 14.7857 10.1538V11.6923Z" fill="#ffffff"/>
</svg>
