<svg version="1.1" id="Layer_1" xmlns="http://www.w3.org/2000/svg" xmlns:xlink="http://www.w3.org/1999/xlink" x="0px" y="0px"
	 width="100%" viewBox="0 0 5357 1937" enable-background="new 0 0 5357 1937" xml:space="preserve">
<path fill="#FFFFFF" opacity="1.000000" stroke="none" 
	d="
M3754.000000,1940.000000 
	C2502.666748,1940.000000 1252.333374,1940.000000 2.000000,1940.000000 
	C2.000000,1294.000000 2.000000,648.000000 2.000000,2.000000 
	C1788.000000,2.000000 3574.000000,2.000000 5360.000000,2.000000 
	C5360.000000,648.000000 5360.000000,1294.000000 5360.000000,1940.000000 
	C4825.000000,1940.000000 4290.000000,1940.000000 3754.000000,1940.000000 
M958.245789,1613.000000 
	C958.749878,1647.609375 959.254517,1682.218872 959.755432,1716.828247 
	C959.774719,1718.161133 959.696167,1719.498047 959.771301,1720.826904 
	C959.912109,1723.317017 960.132263,1725.802612 960.385681,1729.171021 
	C964.198608,1727.221680 967.143127,1725.811646 969.999207,1724.240967 
	C989.243042,1713.657471 1008.435547,1702.980225 1027.705200,1692.444214 
	C1095.159302,1655.562500 1162.676025,1618.795776 1230.096436,1581.853149 
	C1301.598999,1542.673584 1372.996948,1503.303345 1444.481934,1464.091919 
	C1501.380249,1432.881470 1558.319092,1401.744507 1615.313110,1370.709351 
	C1620.185669,1368.056152 1622.372192,1365.056152 1622.399048,1359.134644 
	C1622.627930,1308.861572 1623.368042,1258.591187 1623.719849,1208.318237 
	C1624.043945,1161.999146 1623.953247,1115.677246 1624.272339,1069.358154 
	C1624.634766,1016.752380 1625.483154,964.149353 1625.701416,911.543335 
	C1626.059448,825.231812 1626.079956,738.918884 1626.241455,652.606506 
	C1626.248169,649.036743 1626.242310,645.466980 1626.242310,641.228699 
	C1623.992554,641.848450 1622.636353,641.961914 1621.548950,642.562317 
	C1612.520386,647.547668 1603.591187,652.714355 1594.539429,657.656616 
	C1521.517212,697.526917 1448.484741,737.378296 1375.435669,777.199158 
	C1314.355957,810.495239 1253.240234,843.725342 1192.157471,877.015869 
	C1134.889771,908.227051 1077.639526,939.470276 1020.391724,970.717834 
	C1001.114685,981.239868 981.921265,991.916931 962.569702,1002.299561 
	C957.919312,1004.794678 955.831238,1007.802551 956.135498,1013.293030 
	C956.962280,1028.214844 957.653259,1043.165039 957.693726,1058.105957 
	C957.977478,1162.748657 958.129761,1267.391846 958.230469,1372.034790 
	C958.307129,1451.689819 958.245850,1531.344971 958.245789,1613.000000 
M801.716675,951.385315 
	C730.825745,912.093018 659.947327,872.777954 589.039978,833.515381 
	C528.304321,799.884949 467.513031,766.355103 406.788208,732.705261 
	C356.225647,704.686707 305.730194,676.547058 255.172546,648.519531 
	C253.094574,647.367615 250.685471,646.812866 248.332565,645.943665 
	C248.332565,657.569153 248.294449,668.195312 248.338470,678.821167 
	C248.773071,783.734680 249.335449,888.647949 249.635864,993.561829 
	C249.986008,1115.841431 250.161011,1238.121704 250.191162,1360.401611 
	C250.192749,1366.851562 251.912994,1370.421631 257.812103,1373.623291 
	C320.289124,1407.532715 382.596130,1441.755737 444.913300,1475.959229 
	C518.873657,1516.553345 592.779236,1557.247192 666.743408,1597.834473 
	C742.744446,1639.539429 818.785400,1681.171631 894.817871,1722.819214 
	C898.809814,1725.005859 902.884705,1727.040771 907.816040,1729.613159 
	C907.816040,1488.992554 907.816040,1249.617188 907.816040,1009.958862 
	C872.800842,990.580933 837.933533,971.284851 801.716675,951.385315 
M1506.593872,639.728516 
	C1529.131836,627.058777 1551.669800,614.389038 1575.711548,600.873901 
	C1363.281494,480.054626 1152.297852,360.057953 940.864502,239.805527 
	C720.177673,360.749908 499.508270,481.684784 278.257568,602.938232 
	C281.187286,604.885132 283.296051,606.524780 285.609924,607.789062 
	C333.179657,633.779602 380.764954,659.741577 428.362885,685.680420 
	C509.838684,730.081421 591.325317,774.462463 672.807312,818.852295 
	C756.921448,864.676086 841.053711,910.466614 925.100037,956.414551 
	C929.713623,958.936829 933.026550,958.934631 937.772949,956.279175 
	C1004.235168,919.095642 1070.890137,882.256836 1137.430908,845.213562 
	C1260.055786,776.948486 1382.635986,708.603699 1506.593872,639.728516 
M3797.338379,884.018494 
	C3762.419189,891.079590 3734.866699,909.465820 3714.820801,939.392212 
	C3714.260010,938.998230 3713.699219,938.604248 3713.138428,938.210266 
	C3713.138428,921.692993 3713.138428,905.175720 3713.138428,888.628418 
	C3684.369141,888.628418 3656.508789,888.628418 3628.218994,888.628418 
	C3628.218994,1001.558044 3628.218994,1113.987671 3628.218994,1226.927979 
	C3656.917725,1226.927979 3685.070312,1226.927979 3714.327393,1226.927979 
	C3714.327393,1222.889526 3714.327393,1219.316284 3714.327393,1215.743042 
	C3714.327393,1162.428101 3714.263428,1109.112915 3714.387695,1055.798218 
	C3714.409180,1046.523926 3715.370605,1037.255859 3715.643066,1027.977417 
	C3716.218750,1008.391907 3724.325928,991.892456 3736.943848,977.581787 
	C3752.371582,960.084839 3771.432373,950.898865 3795.422607,954.083191 
	C3815.942383,956.806885 3831.474121,969.800964 3835.755615,990.106628 
	C3838.339600,1002.362244 3840.031982,1015.044128 3840.117188,1027.548096 
	C3840.545898,1090.523438 3840.306396,1153.503418 3840.333496,1216.481689 
	C3840.335205,1219.974976 3840.623047,1223.468140 3840.774170,1226.884399 
	C3870.220215,1226.884399 3898.418457,1226.884399 3927.686035,1226.884399 
	C3927.686035,1222.777100 3927.686279,1219.210938 3927.686279,1215.644653 
	C3927.686279,1157.664673 3927.637207,1099.684448 3927.712646,1041.704590 
	C3927.739502,1021.072937 3931.214355,1001.336304 3943.826172,984.176270 
	C3959.781738,962.466187 3980.418945,950.730652 4008.056885,954.147156 
	C4026.886230,956.474792 4039.949707,966.198730 4046.535889,984.365479 
	C4051.824951,998.954468 4053.453857,1014.164978 4053.534424,1029.395630 
	C4053.864746,1091.705811 4053.664551,1154.018677 4053.692627,1216.330566 
	C4053.694336,1219.844482 4053.990479,1223.358154 4054.143799,1226.744385 
	C4083.403320,1226.744385 4111.545898,1226.744385 4139.912109,1226.744385 
	C4140.075195,1223.756348 4140.310547,1221.448242 4140.311523,1219.140015 
	C4140.331055,1150.496948 4140.609863,1081.852051 4140.125977,1013.212341 
	C4140.007324,996.361145 4138.348633,979.373535 4135.687012,962.722168 
	C4131.723633,937.928162 4120.275391,916.864746 4099.778320,901.494080 
	C4085.009521,890.418884 4068.101807,885.498779 4049.910156,883.140625 
	C4009.945312,877.960022 3975.478516,889.251770 3946.647461,916.886230 
	C3936.818848,926.307007 3928.906738,937.727600 3920.202881,948.134521 
	C3920.095215,947.952881 3919.695801,947.411682 3919.433350,946.810669 
	C3918.905029,945.599304 3918.440674,944.359558 3917.968750,943.124390 
	C3909.681885,921.428345 3895.771484,904.773926 3874.763916,894.254211 
	C3850.676758,882.192383 3825.307861,879.862854 3797.338379,884.018494 
M2960.641846,1215.716675 
	C3002.963135,1195.218384 3030.235352,1162.118408 3042.596191,1116.894531 
	C3055.468750,1069.798218 3055.468750,1022.405579 3043.241943,975.263489 
	C3036.506592,949.294067 3023.177246,926.849854 3001.914062,909.773132 
	C2974.868652,888.052795 2943.696289,880.648743 2909.605957,883.229980 
	C2877.602539,885.653259 2850.938232,899.033203 2829.059082,922.205505 
	C2824.683594,926.839783 2820.986084,932.113953 2815.497559,938.928772 
	C2815.497559,920.690125 2815.497559,904.850830 2815.497559,888.584106 
	C2787.558350,888.584106 2760.421387,888.584106 2732.857910,888.584106 
	C2732.857910,1054.162231 2732.857910,1219.259277 2732.857910,1384.782959 
	C2761.862793,1384.782959 2790.329590,1384.782959 2819.888184,1384.782959 
	C2819.888184,1331.480713 2819.888184,1278.752319 2819.888184,1225.541992 
	C2830.153076,1227.464478 2839.237549,1229.398804 2848.399414,1230.841431 
	C2886.762451,1236.881958 2923.881592,1233.167969 2960.641846,1215.716675 
M4351.016602,897.966919 
	C4342.947754,903.798584 4334.347656,909.034851 4326.962402,915.631958 
	C4319.796875,922.032715 4313.879883,929.830872 4305.921387,938.674377 
	C4305.921387,920.542114 4305.921387,904.726318 4305.921387,888.629517 
	C4278.292480,888.629517 4251.474121,888.629517 4224.169922,888.629517 
	C4224.169922,1054.198975 4224.169922,1219.270142 4224.169922,1384.252808 
	C4235.456543,1386.270996 4302.918457,1385.838257 4310.324707,1383.625244 
	C4310.324707,1357.502808 4310.324707,1331.206055 4310.324707,1304.909302 
	C4310.324707,1278.713867 4310.324707,1252.518433 4310.324707,1225.676392 
	C4313.819824,1226.215332 4316.094727,1226.420776 4318.299805,1226.927734 
	C4351.430664,1234.543701 4384.658203,1236.685059 4417.916992,1228.017700 
	C4453.692871,1218.694580 4484.354492,1200.894531 4507.284180,1171.418579 
	C4523.952637,1149.991333 4533.036621,1125.014160 4538.192383,1098.632568 
	C4542.458496,1076.805298 4543.290039,1054.741577 4542.551758,1032.459961 
	C4541.885742,1012.380554 4539.565918,992.711609 4533.813965,973.527466 
	C4515.552246,912.619202 4469.710938,882.420471 4408.613770,882.345886 
	C4388.851562,882.321777 4369.840820,887.572327 4351.016602,897.966919 
M2346.009277,884.443542 
	C2329.068848,888.526978 2313.210693,895.157471 2298.485107,904.504822 
	C2283.661133,913.914490 2271.803467,926.503174 2259.994385,939.711304 
	C2259.994385,868.818481 2259.994385,797.925720 2259.994385,726.720703 
	C2231.036865,726.720703 2202.598389,726.720703 2174.354980,726.720703 
	C2174.354980,893.778442 2174.354980,1060.224243 2174.354980,1226.801514 
	C2203.226807,1226.801514 2231.402344,1226.801514 2260.337891,1226.801514 
	C2260.337891,1222.634277 2260.338135,1219.020264 2260.338135,1215.406250 
	C2260.338135,1160.081177 2260.243164,1104.755737 2260.428711,1049.431274 
	C2260.460938,1039.841919 2260.663818,1030.042236 2262.630127,1020.728638 
	C2264.657471,1011.126404 2267.393311,1001.038696 2272.504150,992.836487 
	C2290.942383,963.245728 2318.467041,950.292297 2352.966309,954.383118 
	C2377.406738,957.281067 2393.838867,968.668640 2398.264893,995.880798 
	C2399.961426,1006.309082 2401.464111,1016.911194 2401.513916,1027.441406 
	C2401.812744,1090.430542 2401.655029,1153.421875 2401.681152,1216.412476 
	C2401.682617,1219.914795 2401.960693,1223.416992 2402.101318,1226.714355 
	C2430.760010,1226.714355 2458.256592,1226.714355 2485.971680,1226.714355 
	C2486.114014,1223.771484 2486.322754,1221.460815 2486.323242,1219.150269 
	C2486.340820,1148.494141 2486.467041,1077.837524 2486.216553,1007.182251 
	C2486.172119,994.609192 2484.934814,981.999329 2483.555908,969.482666 
	C2481.903320,954.483276 2477.303955,940.351196 2469.280029,927.397766 
	C2455.031982,904.397156 2433.013672,892.913574 2407.985352,886.100098 
	C2388.110840,880.689697 2367.924072,880.980408 2346.009277,884.443542 
M1824.713745,855.944885 
	C1820.823975,870.835083 1819.192749,885.978638 1819.661377,901.351685 
	C1820.317871,922.886353 1824.186279,943.601562 1835.983154,962.104492 
	C1846.184082,978.104248 1860.457520,989.989929 1875.806641,1000.747314 
	C1895.552490,1014.586243 1917.834717,1023.448792 1939.490479,1033.584717 
	C1957.203735,1041.875488 1975.029663,1050.053589 1992.109863,1059.535034 
	C2011.031372,1070.038574 2018.509277,1086.796021 2016.518188,1108.621582 
	C2014.540649,1130.298584 2003.662720,1144.332642 1983.758789,1151.885986 
	C1961.615479,1160.289062 1938.660522,1159.552856 1915.831421,1156.528442 
	C1887.818848,1152.817017 1862.148682,1141.999390 1837.780396,1128.008545 
	C1829.543213,1123.279297 1821.501465,1118.209717 1812.675781,1112.875854 
	C1812.675781,1142.642334 1812.675781,1171.155029 1812.675781,1200.409790 
	C1823.410400,1205.562622 1833.911133,1211.341675 1844.953003,1215.772461 
	C1887.339478,1232.781250 1931.359131,1238.382446 1976.832642,1234.302124 
	C2002.285156,1232.018311 2026.583008,1226.243164 2049.234131,1214.245728 
	C2081.487061,1197.162476 2103.116455,1171.649902 2111.258057,1135.556396 
	C2115.747070,1115.655273 2116.336670,1095.499268 2113.429443,1075.419556 
	C2110.200439,1053.117432 2100.898682,1033.710205 2084.024658,1018.086182 
	C2065.236572,1000.689880 2043.459473,988.151062 2020.475952,977.459717 
	C1999.717407,967.803467 1978.755249,958.582397 1958.054688,948.805542 
	C1951.170288,945.554138 1944.524658,941.595947 1938.277344,937.234009 
	C1918.752563,923.601196 1911.749390,903.993958 1917.182861,880.715454 
	C1920.022583,868.549622 1927.020020,859.921326 1937.808838,854.023926 
	C1948.240234,848.321899 1959.540283,846.002869 1971.253296,845.384644 
	C2005.773926,843.562561 2038.617432,850.364685 2069.910645,864.876831 
	C2078.500732,868.860413 2086.988281,873.065247 2096.091064,877.441895 
	C2096.091064,849.134094 2096.091064,821.854675 2096.091064,794.141602 
	C2091.837891,792.248169 2087.741699,790.038940 2083.396240,788.565735 
	C2072.391602,784.835144 2061.437988,780.762329 2050.171875,778.031860 
	C2019.412476,770.576782 1988.252930,767.347717 1956.481445,769.104492 
	C1935.686401,770.254272 1915.501587,773.469238 1896.242188,781.258789 
	C1861.890869,795.152527 1836.513184,817.984314 1824.713745,855.944885 
M3199.976562,889.569397 
	C3201.739990,868.544312 3213.054932,855.204834 3233.079346,849.430298 
	C3240.045410,847.421509 3247.349609,846.024170 3254.575684,845.575073 
	C3289.125732,843.428162 3322.069092,850.203308 3353.463623,864.621277 
	C3362.140381,868.606079 3370.656494,872.940063 3379.764893,877.365723 
	C3379.764893,849.042969 3379.764893,821.564148 3379.764893,793.367676 
	C3369.578369,789.583557 3359.806641,785.338379 3349.672607,782.299744 
	C3313.749512,771.528259 3277.090820,767.039062 3239.514893,769.236328 
	C3220.403809,770.353821 3201.835205,773.317261 3183.932129,779.949402 
	C3156.603027,790.073547 3134.088623,806.417969 3119.182129,831.988220 
	C3108.733398,849.911560 3104.474609,869.658569 3103.820801,890.147949 
	C3102.990723,916.152954 3106.424805,941.339539 3121.203857,963.677673 
	C3133.025146,981.544678 3149.022949,995.388672 3167.505127,1005.440857 
	C3190.816406,1018.119446 3215.169434,1028.903076 3239.210938,1040.211060 
	C3254.560547,1047.430542 3270.110352,1054.156494 3283.699463,1064.613892 
	C3296.713379,1074.628540 3302.289551,1088.511475 3301.358154,1103.966675 
	C3299.964111,1127.102295 3292.108643,1145.816162 3261.033691,1154.118774 
	C3234.352783,1161.247070 3207.602783,1159.519165 3181.115234,1152.801636 
	C3154.412354,1146.029419 3130.097656,1133.849487 3107.058350,1118.962769 
	C3103.869385,1116.902344 3100.639404,1114.906006 3096.512451,1112.302246 
	C3096.512451,1142.426514 3096.512451,1170.732544 3096.512451,1199.563232 
	C3115.897949,1211.223511 3136.753906,1219.784790 3158.633789,1225.829590 
	C3187.057373,1233.682007 3216.088135,1236.438477 3245.526611,1235.456543 
	C3271.634277,1234.585815 3297.062256,1230.433350 3321.225098,1220.099609 
	C3350.339600,1207.648315 3373.791504,1188.870117 3387.326660,1159.505127 
	C3394.202637,1144.588013 3396.929688,1128.709229 3398.696289,1112.336914 
	C3400.779053,1093.034180 3398.439209,1074.519653 3392.950195,1056.328491 
	C3385.640381,1032.102051 3368.001221,1015.953308 3348.084229,1001.913818 
	C3322.601807,983.951233 3293.573975,972.986389 3265.594238,959.894897 
	C3250.274414,952.726929 3235.504883,944.321594 3220.788818,935.944153 
	C3209.054932,929.264465 3202.979736,918.278503 3200.600098,905.285889 
	C3199.767334,900.738953 3199.989990,895.998779 3199.976562,889.569397 
M4858.677734,1084.180054 
	C4858.677734,1081.624268 4858.677734,1079.068359 4858.677734,1075.389526 
	C4934.459473,1075.389526 5009.597656,1075.389526 5084.729492,1075.389526 
	C5085.379395,1073.095581 5086.003906,1071.859375 5086.045898,1070.603638 
	C5087.115234,1038.931641 5086.475586,1007.418335 5076.429199,976.894714 
	C5062.353516,934.129395 5035.311523,903.470520 4992.062988,888.989929 
	C4959.829102,878.197083 4926.724121,877.654907 4893.686523,884.978088 
	C4837.282227,897.480774 4802.149414,934.270996 4782.112305,986.457520 
	C4766.014160,1028.384888 4766.338379,1071.732544 4776.694824,1114.936035 
	C4785.507812,1151.698853 4804.768066,1182.030640 4835.395508,1204.885132 
	C4864.946289,1226.936890 4898.909668,1234.533813 4934.760742,1235.285645 
	C4958.069824,1235.774536 4981.203613,1232.774414 5003.863770,1227.159058 
	C5027.870605,1221.209961 5050.649414,1212.076538 5071.828125,1199.586304 
	C5071.828125,1175.720215 5071.828125,1152.217651 5071.828125,1127.593506 
	C5068.146484,1129.588135 5065.293945,1131.094849 5062.477051,1132.665405 
	C5022.470703,1154.973145 4979.961426,1167.234253 4933.795410,1164.049316 
	C4914.668457,1162.729858 4897.691895,1156.086304 4883.807129,1142.176636 
	C4868.190918,1126.531860 4861.354004,1107.270142 4858.677734,1084.180054 
M4605.677734,1069.000000 
	C4605.677734,1086.662720 4605.104492,1104.349365 4605.839355,1121.981445 
	C4606.570312,1139.524658 4607.453613,1157.207520 4610.344238,1174.481934 
	C4615.210938,1203.567261 4631.950195,1223.362549 4661.053223,1231.104614 
	C4680.236816,1236.207886 4699.777344,1236.754639 4719.261719,1232.697632 
	C4727.607422,1230.960083 4735.780273,1228.392822 4743.597656,1226.317871 
	C4743.597656,1201.877197 4743.597656,1178.826416 4743.597656,1155.101196 
	C4740.583984,1156.200439 4738.490234,1157.289795 4736.269531,1157.713989 
	C4729.128906,1159.078369 4721.941406,1161.197510 4714.771973,1161.198975 
	C4700.560547,1161.201782 4693.300781,1154.117554 4692.071777,1140.056030 
	C4691.147949,1129.482422 4690.404785,1118.851929 4690.395020,1108.245850 
	C4690.281250,984.940613 4690.322266,861.635193 4690.322266,738.329773 
	C4690.322266,734.464905 4690.322266,730.599976 4690.322266,726.707153 
	C4661.455566,726.707153 4633.964355,726.707153 4605.677734,726.707153 
	C4605.677734,840.519287 4605.677734,953.759644 4605.677734,1069.000000 
M2612.996582,1227.367065 
	C2624.558594,1227.367065 2636.120361,1227.367065 2647.888916,1227.367065 
	C2647.888916,1113.798218 2647.888916,1001.394592 2647.888916,888.658081 
	C2619.337158,888.658081 2591.242920,888.658081 2562.827881,888.658081 
	C2562.827881,1001.575867 2562.827881,1113.939453 2562.827881,1227.367065 
	C2579.208252,1227.367065 2595.103271,1227.367065 2612.996582,1227.367065 
M3534.485352,1227.441895 
	C3537.361328,1227.237061 3540.237061,1227.032227 3542.955811,1226.838623 
	C3544.873535,1208.056274 3544.066895,895.698853 3542.171875,888.654663 
	C3514.307129,888.654663 3486.442383,888.654663 3458.259033,888.654663 
	C3458.259033,1001.615723 3458.259033,1114.047974 3458.259033,1227.441650 
	C3483.419922,1227.441650 3508.003906,1227.441650 3534.485352,1227.441895 
M3538.587158,758.757324 
	C3533.065674,753.574768 3528.262695,747.160645 3521.887451,743.441589 
	C3503.079590,732.469604 3478.551270,738.070129 3465.615479,755.049255 
	C3452.366455,772.438904 3453.450684,797.497742 3468.404297,813.566956 
	C3483.497803,829.786560 3510.861572,829.655334 3526.160889,819.142761 
	C3543.658691,807.119324 3551.443115,783.137146 3538.587158,758.757324 
M2575.415771,815.656921 
	C2591.187500,828.999023 2609.029297,829.969727 2626.554932,821.340088 
	C2643.112305,813.187134 2650.867920,798.225098 2649.588623,779.564331 
	C2648.406494,762.315125 2639.832275,749.286194 2624.069336,742.126160 
	C2608.897705,735.234741 2593.831787,736.415344 2579.648438,745.774719 
	C2556.495605,761.053040 2555.703857,798.972595 2575.415771,815.656921 
z"/>
<path fill="#939597" opacity="1.000000" stroke="none" 
	d="
M958.245911,1612.000000 
	C958.245850,1531.344971 958.307129,1451.689819 958.230469,1372.034790 
	C958.129761,1267.391846 957.977478,1162.748657 957.693726,1058.105957 
	C957.653259,1043.165039 956.962280,1028.214844 956.135498,1013.293030 
	C955.831238,1007.802551 957.919312,1004.794678 962.569702,1002.299561 
	C981.921265,991.916931 1001.114685,981.239868 1020.391724,970.717834 
	C1077.639526,939.470276 1134.889771,908.227051 1192.157471,877.015869 
	C1253.240234,843.725342 1314.355957,810.495239 1375.435669,777.199158 
	C1448.484741,737.378296 1521.517212,697.526917 1594.539429,657.656616 
	C1603.591187,652.714355 1612.520386,647.547668 1621.548950,642.562317 
	C1622.636353,641.961914 1623.992554,641.848450 1626.242310,641.228699 
	C1626.242310,645.466980 1626.248169,649.036743 1626.241455,652.606506 
	C1626.079956,738.918884 1626.059448,825.231812 1625.701416,911.543335 
	C1625.483154,964.149353 1624.634766,1016.752380 1624.272339,1069.358154 
	C1623.953247,1115.677246 1624.043945,1161.999146 1623.719849,1208.318237 
	C1623.368042,1258.591187 1622.627930,1308.861572 1622.399048,1359.134644 
	C1622.372192,1365.056152 1620.185669,1368.056152 1615.313110,1370.709351 
	C1558.319092,1401.744507 1501.380249,1432.881470 1444.481934,1464.091919 
	C1372.996948,1503.303345 1301.598999,1542.673584 1230.096436,1581.853149 
	C1162.676025,1618.795776 1095.159302,1655.562500 1027.705200,1692.444214 
	C1008.435547,1702.980225 989.243042,1713.657471 969.999207,1724.240967 
	C967.143127,1725.811646 964.198608,1727.221680 960.385681,1729.171021 
	C960.132263,1725.802612 959.912109,1723.317017 959.771301,1720.826904 
	C959.696167,1719.498047 959.774719,1718.161133 959.755432,1716.828247 
	C959.254517,1682.218872 958.749878,1647.609375 958.245911,1612.000000 
z"/>
<path fill="#08085E" opacity="1.000000" stroke="none" 
	d="
M802.391418,951.687012 
	C837.933533,971.284851 872.800842,990.580933 907.816040,1009.958862 
	C907.816040,1249.617188 907.816040,1488.992554 907.816040,1729.613159 
	C902.884705,1727.040771 898.809814,1725.005859 894.817871,1722.819214 
	C818.785400,1681.171631 742.744446,1639.539429 666.743408,1597.834473 
	C592.779236,1557.247192 518.873657,1516.553345 444.913300,1475.959229 
	C382.596130,1441.755737 320.289124,1407.532715 257.812103,1373.623291 
	C251.912994,1370.421631 250.192749,1366.851562 250.191162,1360.401611 
	C250.161011,1238.121704 249.986008,1115.841431 249.635864,993.561829 
	C249.335449,888.647949 248.773071,783.734680 248.338470,678.821167 
	C248.294449,668.195312 248.332565,657.569153 248.332565,645.943665 
	C250.685471,646.812866 253.094574,647.367615 255.172546,648.519531 
	C305.730194,676.547058 356.225647,704.686707 406.788208,732.705261 
	C467.513031,766.355103 528.304321,799.884949 589.039978,833.515381 
	C659.947327,872.777954 730.825745,912.093018 802.391418,951.687012 
z"/>
<path fill="#32CD32" opacity="1.000000" stroke="none" 
	d="
M1505.914307,640.010376 
	C1382.635986,708.603699 1260.055786,776.948486 1137.430908,845.213562 
	C1070.890137,882.256836 1004.235168,919.095642 937.772949,956.279175 
	C933.026550,958.934631 929.713623,958.936829 925.100037,956.414551 
	C841.053711,910.466614 756.921448,864.676086 672.807312,818.852295 
	C591.325317,774.462463 509.838684,730.081421 428.362885,685.680420 
	C380.764954,659.741577 333.179657,633.779602 285.609924,607.789062 
	C283.296051,606.524780 281.187286,604.885132 278.257568,602.938232 
	C499.508270,481.684784 720.177673,360.749908 940.864502,239.805527 
	C1152.297852,360.057953 1363.281494,480.054626 1575.711548,600.873901 
	C1551.669800,614.389038 1529.131836,627.058777 1505.914307,640.010376 
z"/>
<path fill="#33CD33" opacity="1.000000" stroke="none" 
	d="
M3798.190430,883.841125 
	C3825.307861,879.862854 3850.676758,882.192383 3874.763916,894.254211 
	C3895.771484,904.773926 3909.681885,921.428345 3917.968750,943.124390 
	C3918.440674,944.359558 3918.905029,945.599304 3919.433350,946.810669 
	C3919.695801,947.411682 3920.095215,947.952881 3920.202881,948.134521 
	C3928.906738,937.727600 3936.818848,926.307007 3946.647461,916.886230 
	C3975.478516,889.251770 4009.945312,877.960022 4049.910156,883.140625 
	C4068.101807,885.498779 4085.009521,890.418884 4099.778320,901.494080 
	C4120.275391,916.864746 4131.723633,937.928162 4135.687012,962.722168 
	C4138.348633,979.373535 4140.007324,996.361145 4140.125977,1013.212341 
	C4140.609863,1081.852051 4140.331055,1150.496948 4140.311523,1219.140015 
	C4140.310547,1221.448242 4140.075195,1223.756348 4139.912109,1226.744385 
	C4111.545898,1226.744385 4083.403320,1226.744385 4054.143799,1226.744385 
	C4053.990479,1223.358154 4053.694336,1219.844482 4053.692627,1216.330566 
	C4053.664551,1154.018677 4053.864746,1091.705811 4053.534424,1029.395630 
	C4053.453857,1014.164978 4051.824951,998.954468 4046.535889,984.365479 
	C4039.949707,966.198730 4026.886230,956.474792 4008.056885,954.147156 
	C3980.418945,950.730652 3959.781738,962.466187 3943.826172,984.176270 
	C3931.214355,1001.336304 3927.739502,1021.072937 3927.712646,1041.704590 
	C3927.637207,1099.684448 3927.686279,1157.664673 3927.686279,1215.644653 
	C3927.686279,1219.210938 3927.686035,1222.777100 3927.686035,1226.884399 
	C3898.418457,1226.884399 3870.220215,1226.884399 3840.774170,1226.884399 
	C3840.623047,1223.468140 3840.335205,1219.974976 3840.333496,1216.481689 
	C3840.306396,1153.503418 3840.545898,1090.523438 3840.117188,1027.548096 
	C3840.031982,1015.044128 3838.339600,1002.362244 3835.755615,990.106628 
	C3831.474121,969.800964 3815.942383,956.806885 3795.422607,954.083191 
	C3771.432373,950.898865 3752.371582,960.084839 3736.943848,977.581787 
	C3724.325928,991.892456 3716.218750,1008.391907 3715.643066,1027.977417 
	C3715.370605,1037.255859 3714.409180,1046.523926 3714.387695,1055.798218 
	C3714.263428,1109.112915 3714.327393,1162.428101 3714.327393,1215.743042 
	C3714.327393,1219.316284 3714.327393,1222.889526 3714.327393,1226.927979 
	C3685.070312,1226.927979 3656.917725,1226.927979 3628.218994,1226.927979 
	C3628.218994,1113.987671 3628.218994,1001.558044 3628.218994,888.628418 
	C3656.508789,888.628418 3684.369141,888.628418 3713.138428,888.628418 
	C3713.138428,905.175720 3713.138428,921.692993 3713.138428,938.210266 
	C3713.699219,938.604248 3714.260010,938.998230 3714.820801,939.392212 
	C3734.866699,909.465820 3762.419189,891.079590 3798.190430,883.841125 
z"/>
<path fill="#0A0A60" opacity="1.000000" stroke="none" 
	d="
M2959.943359,1215.988281 
	C2923.881592,1233.167969 2886.762451,1236.881958 2848.399414,1230.841431 
	C2839.237549,1229.398804 2830.153076,1227.464478 2819.888184,1225.541992 
	C2819.888184,1278.752319 2819.888184,1331.480713 2819.888184,1384.782959 
	C2790.329590,1384.782959 2761.862793,1384.782959 2732.857910,1384.782959 
	C2732.857910,1219.259277 2732.857910,1054.162231 2732.857910,888.584106 
	C2760.421387,888.584106 2787.558350,888.584106 2815.497559,888.584106 
	C2815.497559,904.850830 2815.497559,920.690125 2815.497559,938.928772 
	C2820.986084,932.113953 2824.683594,926.839783 2829.059082,922.205505 
	C2850.938232,899.033203 2877.602539,885.653259 2909.605957,883.229980 
	C2943.696289,880.648743 2974.868652,888.052795 3001.914062,909.773132 
	C3023.177246,926.849854 3036.506592,949.294067 3043.241943,975.263489 
	C3055.468750,1022.405579 3055.468750,1069.798218 3042.596191,1116.894531 
	C3030.235352,1162.118408 3002.963135,1195.218384 2959.943359,1215.988281 
M2889.253418,954.120483 
	C2877.437988,954.637634 2866.387695,957.541992 2856.450439,964.240845 
	C2832.353760,980.485107 2819.770508,1002.970825 2819.695801,1032.141357 
	C2819.599854,1069.439697 2819.664307,1106.738403 2819.690430,1144.036987 
	C2819.692139,1146.623413 2819.950439,1149.209595 2820.110840,1152.197388 
	C2844.458496,1162.899536 2869.406982,1166.694580 2895.161133,1160.884644 
	C2925.049316,1154.142334 2945.017822,1135.720703 2955.196045,1106.753906 
	C2963.199463,1083.977051 2963.063232,1060.369995 2961.997070,1036.760376 
	C2961.399170,1023.517151 2958.710938,1010.582092 2954.209473,997.979248 
	C2944.433105,970.608154 2923.073730,954.272278 2889.253418,954.120483 
M2962.971191,918.979553 
	C2967.359131,914.977295 2967.003174,911.047913 2962.866455,906.546448 
	C2959.261719,910.584229 2959.252686,914.323425 2962.971191,918.979553 
z"/>
<path fill="#33CD33" opacity="1.000000" stroke="none" 
	d="
M4351.689453,897.657227 
	C4369.840820,887.572327 4388.851562,882.321777 4408.613770,882.345886 
	C4469.710938,882.420471 4515.552246,912.619202 4533.813965,973.527466 
	C4539.565918,992.711609 4541.885742,1012.380554 4542.551758,1032.459961 
	C4543.290039,1054.741577 4542.458496,1076.805298 4538.192383,1098.632568 
	C4533.036621,1125.014160 4523.952637,1149.991333 4507.284180,1171.418579 
	C4484.354492,1200.894531 4453.692871,1218.694580 4417.916992,1228.017700 
	C4384.658203,1236.685059 4351.430664,1234.543701 4318.299805,1226.927734 
	C4316.094727,1226.420776 4313.819824,1226.215332 4310.324707,1225.676392 
	C4310.324707,1252.518433 4310.324707,1278.713867 4310.324707,1304.909302 
	C4310.324707,1331.206055 4310.324707,1357.502808 4310.324707,1383.625244 
	C4302.918457,1385.838257 4235.456543,1386.270996 4224.169922,1384.252808 
	C4224.169922,1219.270142 4224.169922,1054.198975 4224.169922,888.629517 
	C4251.474121,888.629517 4278.292480,888.629517 4305.921387,888.629517 
	C4305.921387,904.726318 4305.921387,920.542114 4305.921387,938.674377 
	C4313.879883,929.830872 4319.796875,922.032715 4326.962402,915.631958 
	C4334.347656,909.034851 4342.947754,903.798584 4351.689453,897.657227 
M4316.900879,1000.281128 
	C4314.708496,1010.271301 4310.805176,1020.230652 4310.624023,1030.257080 
	C4309.897461,1070.501221 4310.323730,1110.766113 4310.323730,1151.553711 
	C4313.707031,1153.059937 4316.936523,1154.696533 4320.304688,1155.962769 
	C4335.423340,1161.646851 4351.124512,1163.834229 4367.217773,1163.419556 
	C4405.336426,1162.437378 4437.694824,1140.150757 4447.930176,1101.535400 
	C4456.525879,1069.104980 4456.623047,1036.359619 4447.380371,1004.244751 
	C4438.188477,972.310181 4417.939453,953.602905 4380.754395,954.338074 
	C4350.240723,954.941467 4330.748047,972.834595 4316.900879,1000.281128 
z"/>
<path fill="#09095F" opacity="1.000000" stroke="none" 
	d="
M2346.857422,884.289978 
	C2367.924072,880.980408 2388.110840,880.689697 2407.985352,886.100098 
	C2433.013672,892.913574 2455.031982,904.397156 2469.280029,927.397766 
	C2477.303955,940.351196 2481.903320,954.483276 2483.555908,969.482666 
	C2484.934814,981.999329 2486.172119,994.609192 2486.216553,1007.182251 
	C2486.467041,1077.837524 2486.340820,1148.494141 2486.323242,1219.150269 
	C2486.322754,1221.460815 2486.114014,1223.771484 2485.971680,1226.714355 
	C2458.256592,1226.714355 2430.760010,1226.714355 2402.101318,1226.714355 
	C2401.960693,1223.416992 2401.682617,1219.914795 2401.681152,1216.412476 
	C2401.655029,1153.421875 2401.812744,1090.430542 2401.513916,1027.441406 
	C2401.464111,1016.911194 2399.961426,1006.309082 2398.264893,995.880798 
	C2393.838867,968.668640 2377.406738,957.281067 2352.966309,954.383118 
	C2318.467041,950.292297 2290.942383,963.245728 2272.504150,992.836487 
	C2267.393311,1001.038696 2264.657471,1011.126404 2262.630127,1020.728638 
	C2260.663818,1030.042236 2260.460938,1039.841919 2260.428711,1049.431274 
	C2260.243164,1104.755737 2260.338135,1160.081177 2260.338135,1215.406250 
	C2260.338135,1219.020264 2260.337891,1222.634277 2260.337891,1226.801514 
	C2231.402344,1226.801514 2203.226807,1226.801514 2174.354980,1226.801514 
	C2174.354980,1060.224243 2174.354980,893.778442 2174.354980,726.720703 
	C2202.598389,726.720703 2231.036865,726.720703 2259.994385,726.720703 
	C2259.994385,797.925720 2259.994385,868.818481 2259.994385,939.711304 
	C2271.803467,926.503174 2283.661133,913.914490 2298.485107,904.504822 
	C2313.210693,895.157471 2329.068848,888.526978 2346.857422,884.289978 
z"/>
<path fill="#0A0A5F" opacity="1.000000" stroke="none" 
	d="
M1825.018921,855.193115 
	C1836.513184,817.984314 1861.890869,795.152527 1896.242188,781.258789 
	C1915.501587,773.469238 1935.686401,770.254272 1956.481445,769.104492 
	C1988.252930,767.347717 2019.412476,770.576782 2050.171875,778.031860 
	C2061.437988,780.762329 2072.391602,784.835144 2083.396240,788.565735 
	C2087.741699,790.038940 2091.837891,792.248169 2096.091064,794.141602 
	C2096.091064,821.854675 2096.091064,849.134094 2096.091064,877.441895 
	C2086.988281,873.065247 2078.500732,868.860413 2069.910645,864.876831 
	C2038.617432,850.364685 2005.773926,843.562561 1971.253296,845.384644 
	C1959.540283,846.002869 1948.240234,848.321899 1937.808838,854.023926 
	C1927.020020,859.921326 1920.022583,868.549622 1917.182861,880.715454 
	C1911.749390,903.993958 1918.752563,923.601196 1938.277344,937.234009 
	C1944.524658,941.595947 1951.170288,945.554138 1958.054688,948.805542 
	C1978.755249,958.582397 1999.717407,967.803467 2020.475952,977.459717 
	C2043.459473,988.151062 2065.236572,1000.689880 2084.024658,1018.086182 
	C2100.898682,1033.710205 2110.200439,1053.117432 2113.429443,1075.419556 
	C2116.336670,1095.499268 2115.747070,1115.655273 2111.258057,1135.556396 
	C2103.116455,1171.649902 2081.487061,1197.162476 2049.234131,1214.245728 
	C2026.583008,1226.243164 2002.285156,1232.018311 1976.832642,1234.302124 
	C1931.359131,1238.382446 1887.339478,1232.781250 1844.953003,1215.772461 
	C1833.911133,1211.341675 1823.410400,1205.562622 1812.675781,1200.409790 
	C1812.675781,1171.155029 1812.675781,1142.642334 1812.675781,1112.875854 
	C1821.501465,1118.209717 1829.543213,1123.279297 1837.780396,1128.008545 
	C1862.148682,1141.999390 1887.818848,1152.817017 1915.831421,1156.528442 
	C1938.660522,1159.552856 1961.615479,1160.289062 1983.758789,1151.885986 
	C2003.662720,1144.332642 2014.540649,1130.298584 2016.518188,1108.621582 
	C2018.509277,1086.796021 2011.031372,1070.038574 1992.109863,1059.535034 
	C1975.029663,1050.053589 1957.203735,1041.875488 1939.490479,1033.584717 
	C1917.834717,1023.448792 1895.552490,1014.586243 1875.806641,1000.747314 
	C1860.457520,989.989929 1846.184082,978.104248 1835.983154,962.104492 
	C1824.186279,943.601562 1820.317871,922.886353 1819.661377,901.351685 
	C1819.192749,885.978638 1820.823975,870.835083 1825.018921,855.193115 
z"/>
<path fill="#33CD33" opacity="1.000000" stroke="none" 
	d="
M3199.853516,890.458130 
	C3199.989990,895.998779 3199.767334,900.738953 3200.600098,905.285889 
	C3202.979736,918.278503 3209.054932,929.264465 3220.788818,935.944153 
	C3235.504883,944.321594 3250.274414,952.726929 3265.594238,959.894897 
	C3293.573975,972.986389 3322.601807,983.951233 3348.084229,1001.913818 
	C3368.001221,1015.953308 3385.640381,1032.102051 3392.950195,1056.328491 
	C3398.439209,1074.519653 3400.779053,1093.034180 3398.696289,1112.336914 
	C3396.929688,1128.709229 3394.202637,1144.588013 3387.326660,1159.505127 
	C3373.791504,1188.870117 3350.339600,1207.648315 3321.225098,1220.099609 
	C3297.062256,1230.433350 3271.634277,1234.585815 3245.526611,1235.456543 
	C3216.088135,1236.438477 3187.057373,1233.682007 3158.633789,1225.829590 
	C3136.753906,1219.784790 3115.897949,1211.223511 3096.512451,1199.563232 
	C3096.512451,1170.732544 3096.512451,1142.426514 3096.512451,1112.302246 
	C3100.639404,1114.906006 3103.869385,1116.902344 3107.058350,1118.962769 
	C3130.097656,1133.849487 3154.412354,1146.029419 3181.115234,1152.801636 
	C3207.602783,1159.519165 3234.352783,1161.247070 3261.033691,1154.118774 
	C3292.108643,1145.816162 3299.964111,1127.102295 3301.358154,1103.966675 
	C3302.289551,1088.511475 3296.713379,1074.628540 3283.699463,1064.613892 
	C3270.110352,1054.156494 3254.560547,1047.430542 3239.210938,1040.211060 
	C3215.169434,1028.903076 3190.816406,1018.119446 3167.505127,1005.440857 
	C3149.022949,995.388672 3133.025146,981.544678 3121.203857,963.677673 
	C3106.424805,941.339539 3102.990723,916.152954 3103.820801,890.147949 
	C3104.474609,869.658569 3108.733398,849.911560 3119.182129,831.988220 
	C3134.088623,806.417969 3156.603027,790.073547 3183.932129,779.949402 
	C3201.835205,773.317261 3220.403809,770.353821 3239.514893,769.236328 
	C3277.090820,767.039062 3313.749512,771.528259 3349.672607,782.299744 
	C3359.806641,785.338379 3369.578369,789.583557 3379.764893,793.367676 
	C3379.764893,821.564148 3379.764893,849.042969 3379.764893,877.365723 
	C3370.656494,872.940063 3362.140381,868.606079 3353.463623,864.621277 
	C3322.069092,850.203308 3289.125732,843.428162 3254.575684,845.575073 
	C3247.349609,846.024170 3240.045410,847.421509 3233.079346,849.430298 
	C3213.054932,855.204834 3201.739990,868.544312 3199.853516,890.458130 
z"/>
<path fill="#34CD34" opacity="1.000000" stroke="none" 
	d="
M4858.958008,1085.012817 
	C4861.354004,1107.270142 4868.190918,1126.531860 4883.807129,1142.176636 
	C4897.691895,1156.086304 4914.668457,1162.729858 4933.795410,1164.049316 
	C4979.961426,1167.234253 5022.470703,1154.973145 5062.477051,1132.665405 
	C5065.293945,1131.094849 5068.146484,1129.588135 5071.828125,1127.593506 
	C5071.828125,1152.217651 5071.828125,1175.720215 5071.828125,1199.586304 
	C5050.649414,1212.076538 5027.870605,1221.209961 5003.863770,1227.159058 
	C4981.203613,1232.774414 4958.069824,1235.774536 4934.760742,1235.285645 
	C4898.909668,1234.533813 4864.946289,1226.936890 4835.395508,1204.885132 
	C4804.768066,1182.030640 4785.507812,1151.698853 4776.694824,1114.936035 
	C4766.338379,1071.732544 4766.014160,1028.384888 4782.112305,986.457520 
	C4802.149414,934.270996 4837.282227,897.480774 4893.686523,884.978088 
	C4926.724121,877.654907 4959.829102,878.197083 4992.062988,888.989929 
	C5035.311523,903.470520 5062.353516,934.129395 5076.429199,976.894714 
	C5086.475586,1007.418335 5087.115234,1038.931641 5086.045898,1070.603638 
	C5086.003906,1071.859375 5085.379395,1073.095581 5084.729492,1075.389526 
	C5009.597656,1075.389526 4934.459473,1075.389526 4858.677734,1075.389526 
	C4858.677734,1079.068359 4858.677734,1081.624268 4858.958008,1085.012817 
M4903.000000,1022.133423 
	C4936.557617,1022.133423 4970.115723,1022.133423 5003.551758,1022.133423 
	C5007.364746,982.700684 4976.812988,949.099243 4938.636230,947.984985 
	C4890.041992,946.566650 4861.356445,985.729309 4861.154297,1022.133484 
	C4874.431641,1022.133484 4887.715820,1022.133484 4903.000000,1022.133423 
z"/>
<path fill="#33CD32" opacity="1.000000" stroke="none" 
	d="
M4605.677734,1068.000000 
	C4605.677734,953.759644 4605.677734,840.519287 4605.677734,726.707153 
	C4633.964355,726.707153 4661.455566,726.707153 4690.322266,726.707153 
	C4690.322266,730.599976 4690.322266,734.464905 4690.322266,738.329773 
	C4690.322266,861.635193 4690.281250,984.940613 4690.395020,1108.245850 
	C4690.404785,1118.851929 4691.147949,1129.482422 4692.071777,1140.056030 
	C4693.300781,1154.117554 4700.560547,1161.201782 4714.771973,1161.198975 
	C4721.941406,1161.197510 4729.128906,1159.078369 4736.269531,1157.713989 
	C4738.490234,1157.289795 4740.583984,1156.200439 4743.597656,1155.101196 
	C4743.597656,1178.826416 4743.597656,1201.877197 4743.597656,1226.317871 
	C4735.780273,1228.392822 4727.607422,1230.960083 4719.261719,1232.697632 
	C4699.777344,1236.754639 4680.236816,1236.207886 4661.053223,1231.104614 
	C4631.950195,1223.362549 4615.210938,1203.567261 4610.344238,1174.481934 
	C4607.453613,1157.207520 4606.570312,1139.524658 4605.839355,1121.981445 
	C4605.104492,1104.349365 4605.677734,1086.662720 4605.677734,1068.000000 
z"/>
<path fill="#0A0A5F" opacity="1.000000" stroke="none" 
	d="
M2611.997314,1227.367065 
	C2595.103271,1227.367065 2579.208252,1227.367065 2562.827881,1227.367065 
	C2562.827881,1113.939453 2562.827881,1001.575867 2562.827881,888.658081 
	C2591.242920,888.658081 2619.337158,888.658081 2647.888916,888.658081 
	C2647.888916,1001.394592 2647.888916,1113.798218 2647.888916,1227.367065 
	C2636.120361,1227.367065 2624.558594,1227.367065 2611.997314,1227.367065 
z"/>
<path fill="#34CD34" opacity="1.000000" stroke="none" 
	d="
M3533.536621,1227.441772 
	C3508.003906,1227.441650 3483.419922,1227.441650 3458.259033,1227.441650 
	C3458.259033,1114.047974 3458.259033,1001.615723 3458.259033,888.654663 
	C3486.442383,888.654663 3514.307129,888.654663 3542.173584,888.649353 
	C3544.066895,895.698853 3544.873535,1208.056274 3542.955811,1226.838623 
	C3540.237061,1227.032227 3537.361328,1227.237061 3533.536621,1227.441772 
z"/>
<path fill="#34CD34" opacity="1.000000" stroke="none" 
	d="
M3539.003906,759.376587 
	C3551.443115,783.137146 3543.658691,807.119324 3526.160889,819.142761 
	C3510.861572,829.655334 3483.497803,829.786560 3468.404297,813.566956 
	C3453.450684,797.497742 3452.366455,772.438904 3465.615479,755.049255 
	C3478.551270,738.070129 3503.079590,732.469604 3521.887451,743.441589 
	C3528.262695,747.160645 3533.065674,753.574768 3539.003906,759.376587 
z"/>
<path fill="#0B0B60" opacity="1.000000" stroke="none" 
	d="
M2574.902588,815.146606 
	C2555.703857,798.972595 2556.495605,761.053040 2579.648438,745.774719 
	C2593.831787,736.415344 2608.897705,735.234741 2624.069336,742.126160 
	C2639.832275,749.286194 2648.406494,762.315125 2649.588623,779.564331 
	C2650.867920,798.225098 2643.112305,813.187134 2626.554932,821.340088 
	C2609.029297,829.969727 2591.187500,828.999023 2574.902588,815.146606 
z"/>
<path fill="#FEFEFE" opacity="1.000000" stroke="none" 
	d="
M2890.144531,954.120483 
	C2923.073730,954.272278 2944.433105,970.608154 2954.209473,997.979248 
	C2958.710938,1010.582092 2961.399170,1023.517151 2961.997070,1036.760376 
	C2963.063232,1060.369995 2963.199463,1083.977051 2955.196045,1106.753906 
	C2945.017822,1135.720703 2925.049316,1154.142334 2895.161133,1160.884644 
	C2869.406982,1166.694580 2844.458496,1162.899536 2820.110840,1152.197388 
	C2819.950439,1149.209595 2819.692139,1146.623413 2819.690430,1144.036987 
	C2819.664307,1106.738403 2819.599854,1069.439697 2819.695801,1032.141357 
	C2819.770508,1002.970825 2832.353760,980.485107 2856.450439,964.240845 
	C2866.387695,957.541992 2877.437988,954.637634 2890.144531,954.120483 
z"/>
<path fill="#616383" opacity="1.000000" stroke="none" 
	d="
M2962.354980,918.639038 
	C2959.252686,914.323425 2959.261719,910.584229 2962.866455,906.546448 
	C2967.003174,911.047913 2967.359131,914.977295 2962.354980,918.639038 
z"/>
<path fill="#FDFFFD" opacity="1.000000" stroke="none" 
	d="
M4317.252930,999.594482 
	C4330.748047,972.834595 4350.240723,954.941467 4380.754395,954.338074 
	C4417.939453,953.602905 4438.188477,972.310181 4447.380371,1004.244751 
	C4456.623047,1036.359619 4456.525879,1069.104980 4447.930176,1101.535400 
	C4437.694824,1140.150757 4405.336426,1162.437378 4367.217773,1163.419556 
	C4351.124512,1163.834229 4335.423340,1161.646851 4320.304688,1155.962769 
	C4316.936523,1154.696533 4313.707031,1153.059937 4310.323730,1151.553711 
	C4310.323730,1110.766113 4309.897461,1070.501221 4310.624023,1030.257080 
	C4310.805176,1020.230652 4314.708496,1010.271301 4317.252930,999.594482 
z"/>
<path fill="#FDFFFE" opacity="1.000000" stroke="none" 
	d="
M4902.000000,1022.133423 
	C4887.715820,1022.133484 4874.431641,1022.133484 4861.154297,1022.133484 
	C4861.356445,985.729309 4890.041992,946.566650 4938.636230,947.984985 
	C4976.812988,949.099243 5007.364746,982.700684 5003.551758,1022.133423 
	C4970.115723,1022.133423 4936.557617,1022.133423 4902.000000,1022.133423 
z"/>
</svg>