<svg xmlns="http://www.w3.org/2000/svg" viewBox="0 0 830.67 282.12">
  <defs>
    <style>
      .cls-3{fill:#061ab1}
    </style>
  </defs>
  <g id="Layer_2" data-name="Layer 2">
    <g id="Layer_1-2" data-name="Layer 1">
      <circle cx="784.27" cy="234.5" r="46.4" style="fill:#fd0"/>
      <path d="M133.46 131.42v60.71H184c-7.38 11.58-24 17.75-35.3 17.75-38 0-57-21.67-57-65.4 0-48.28 25.1-73 74.91-73 19.77 0 45.62 4.94 73.38 13.69V12.55c-8-3.42-20.15-6.09-35.74-8.75A258.46 258.46 0 0 0 162 0C112.54 0 73.38 13.31 44.11 39.92S0 102.28 0 147.53q0 62.16 34.22 98.09 34.22 36.51 92.39 36.5c39 0 74.73-20.21 86.26-45.86l-.25 41.3H269V131.42ZM296.74 277.56v-273h87.45v201.9h95.43v71.1ZM507.39 270.72v-74.53c12.92 4.19 28.13 7.61 45.24 10.65s31.94 4.56 44.49 4.56c21.29 0 32.32-5.32 32.32-14.83 0-6.08-3.42-9.12-19-12.54L580 177.18c-52.09-11.78-76.42-38-76.42-82.51 0-29.27 10.26-52.47 30.41-69.58C554.15 8.36 582.29 0 617.65 0c24.33 0 61.6 4.94 84.41 10.65v71.1c-11.79-3-25.86-6.09-43-8.75s-30.41-3.8-40.3-3.8c-18.63 0-29.28 5.32-29.28 14.83 0 5.7 5 9.5 15.21 12.17l35.36 8.36c51.71 12.17 75.67 38.78 75.67 84 0 28.9-10.65 51.71-31.56 68.44s-49.81 25.09-86.69 25.09c-34.95.03-70.31-4.91-90.08-11.37Z" class="cls-3"/>
    </g>
  </g>
</svg>
