<svg xmlns="http://www.w3.org/2000/svg" viewBox="0 0 340.799 55.895">
  <style>
    .letters{fill:#004b8e}
  </style>
  <path d="M6.531 24.759h9.708l-4.855 18.748h13.945l-1.677 6.46H0ZM38.391 45.339c3.442 0 4.676-4.059 4.676-5.647 0-2.189-.7-3.425-3.044-3.425-3.486 0-4.722 4.2-4.722 6.107 0 1.484.618 2.965 3.09 2.965m2.294-14.155c6.707 0 11.12 2.471 11.12 8.013 0 4.7-3.266 11.227-13.812 11.227-6.31 0-11.429-2.437-11.429-8.579 0-5.86 4.766-10.661 14.121-10.661M64.869 45.339c3.442 0 4.678-4.059 4.678-5.647 0-2.189-.707-3.425-3.045-3.425-3.486 0-4.722 4.2-4.722 6.107 0 1.484.618 2.965 3.089 2.965m2.295-14.155c6.707 0 11.12 2.471 11.12 8.013 0 4.7-3.266 11.227-13.812 11.227-6.31 0-11.429-2.437-11.429-8.579 0-5.86 4.766-10.661 14.121-10.661M82.169 31.643h8.472l-.618 2.4h.089a10.2 10.2 0 0 1 7.192-2.858c3 0 5.605.776 6.178 3.035a10.341 10.341 0 0 1 7.5-3.035c4.456 0 7.325 1.658 7.325 5.436a16.022 16.022 0 0 1-.53 2.895l-2.78 10.449h-8.737l2.338-8.755a20.47 20.47 0 0 0 .53-2.682c0-1.165-.838-1.765-2.25-1.765-1.722 0-2.956.776-3.31 2.118l-3 11.084h-8.737l2.647-9.814a7.333 7.333 0 0 0 .353-1.694c0-1.165-.794-1.694-2.206-1.694a3.4 3.4 0 0 0-3.663 2.718l-2.824 10.484h-8.737l4.766-18.321M131.895 29.665h-8.737l1.28-4.906h8.737Zm-9.223 1.978h8.739l-4.767 18.321h-8.737l4.765-18.321M138.382 43.963a1.969 1.969 0 0 0 .8 1.694 4.575 4.575 0 0 0 2.293.459c2.34 0 2.647-1.2 2.647-1.624 0-1.3-2.2-1.411-5.47-1.871-1.545-.212-6.223-.74-6.223-4.73 0-5.261 5.87-6.707 11.386-6.707 4.853 0 10.767.847 10.281 5.789h-7.81a1.315 1.315 0 0 0-.619-1.447 3.923 3.923 0 0 0-2.03-.459c-1.191 0-2.47.388-2.47 1.482 0 .989.838 1.27 1.984 1.378 6.488.706 9.71 1.835 9.71 5.683 0 4.236-4.547 6.814-11.605 6.814-4.943 0-11.077-.954-10.9-6.461h8.032M169.269 24.759h26.034l-1.631 6.459h-16.327l-.837 3.143h15.136l-1.544 6h-15.181l-.839 3.142h16.68l-1.678 6.46h-26.385ZM200.469 40.185l-5.208-8.542h8.826l1.855 3.883 3.265-3.883h9.529l-9.132 8.9 5.78 9.426h-8.826l-2.514-4.483-4.237 4.483h-9.619ZM234.711 39.515c0-1.8-.618-3.248-3.176-3.248-3.884 0-4.59 4.448-4.59 6.072a2.913 2.913 0 0 0 3.177 3c3.487 0 4.589-3.458 4.589-5.824m-13.768-7.872h8.473l-.531 2.083h.09a7.627 7.627 0 0 1 6.134-2.542c6.441 0 8.339 4.271 8.339 7.519 0 5.436-3.4 11.721-11.165 11.721-2.515 0-4.986-.248-6.882-2.684l-2.076 8.155h-8.737l6.355-24.252M247.42 31.643h8.471l-.75 2.859h.088a9.381 9.381 0 0 1 6.663-3.318 11.65 11.65 0 0 1 3.09.281l-1.633 6.179a11.96 11.96 0 0 0-3.354-.459c-3.707 0-5.559 1.271-6.574 5.119l-1.986 7.66h-8.738l4.723-18.321M280.293 38.738a2.825 2.825 0 0 0 .088-.6c0-1.376-1.1-2.471-3.309-2.471a4.407 4.407 0 0 0-4.544 3.071Zm6.884 5.9c-.574 1.236-2.294 5.79-12.179 5.79-8.119 0-11.386-3.637-11.386-8.085 0-8.4 8.032-11.155 13.724-11.155 5.075 0 11.209 2.258 11.209 8.013a9.206 9.206 0 0 1-.442 3.177h-16.327c0 1.941.84 3.565 3.574 3.565 1.9 0 3-.67 3.443-1.3h8.384M296.969 43.963a1.965 1.965 0 0 0 .793 1.694 4.583 4.583 0 0 0 2.295.459c2.338 0 2.648-1.2 2.648-1.624 0-1.3-2.206-1.411-5.474-1.871-1.543-.212-6.221-.74-6.221-4.73 0-5.261 5.871-6.707 11.385-6.707 4.854 0 10.767.847 10.281 5.789h-7.807a1.31 1.31 0 0 0-.616-1.447 3.928 3.928 0 0 0-2.03-.459c-1.191 0-2.472.388-2.472 1.482 0 .989.84 1.27 1.986 1.378 6.488.706 9.708 1.835 9.708 5.683 0 4.236-4.545 6.814-11.605 6.814-4.942 0-11.075-.954-10.9-6.461h8.029M320.184 43.963a1.971 1.971 0 0 0 .794 1.694 4.583 4.583 0 0 0 2.295.459c2.338 0 2.648-1.2 2.648-1.624 0-1.3-2.207-1.411-5.472-1.871-1.545-.212-6.221-.74-6.221-4.73 0-5.261 5.867-6.707 11.383-6.707 4.853 0 10.768.847 10.283 5.789h-7.811a1.313 1.313 0 0 0-.618-1.447 3.926 3.926 0 0 0-2.029-.459c-1.192 0-2.472.388-2.472 1.482 0 .989.838 1.27 1.986 1.378 6.486.706 9.708 1.835 9.708 5.683 0 4.236-4.545 6.814-11.606 6.814-4.942 0-11.076-.954-10.9-6.461h8.03" class="letters"/>
  <path fill="#D93835" d="m338.495 27.219 2.3-8.893C295.293 5.276 240.948-1.493 182.769.277 122.713 2.1 67.286 12.748 21.835 29.425 67.771 14.137 123.495 5.172 183.58 5.172c57.136 0 110.331 8.106 154.916 22.047" class="swoosh"/>
</svg>
