<svg xmlns="http://www.w3.org/2000/svg" xml:space="preserve" style="enable-background:new 0 0 188.419 26.169" viewBox="0 0 188.419 26.169">
  <path d="M128.981 19.346c-.141.328-.33.653-.566.947-.945 1.174-2.406 1.927-3.635 1.927-1.135 0-1.891-.721-1.088-2.381 1.135-2.417 3.921-3.102 6.518-3.102l-1.229 2.609zm3.684-12.823c-3.259 0-6.187.883-7.792 1.566l-1.84 3.983c1.793-.817 4.201-1.633 6.656-1.633 2.547 0 2.691 1.273 2.123 2.479l-.189.329c-5.903 0-11.522 2.219-13.834 7.146-1.462 3.164-.376 5.775 3.21 5.775 2.077 0 4.251-.786 6.141-2.254h.139l-.565 1.858h5.192c.33-1.142 1.041-2.768 1.795-4.466l3.164-6.756c1.934-4.177 2.124-8.027-4.2-8.027M72.849 6.884l-5.382 11.615a6.545 6.545 0 0 1-.947 1.405c-.708.815-1.933 1.726-3.304 1.726-1.84 0-1.84-1.63-.613-4.274l4.91-10.472h-5.807l-5.239 11.254c-2.599 5.519-1.42 8.031 2.502 8.031 2.878 0 5.334-1.537 6.75-2.743h.093l-.802 2.348h5.146c.33-1.142.991-2.804 1.796-4.466.753-1.633 6.702-14.424 6.702-14.424h-5.805zM94.704 26.169c4.299 0 10.387-2.644 13.834-9.952 2.691-5.844.992-9.693-4.438-9.693-5.334 0-11 3.524-13.975 9.918-2.833 6.104-.755 9.727 4.579 9.727m1.937-4.045c-2.265 0-2.125-2.58-.612-5.811 1.273-2.709 3.493-5.742 6.042-5.742 2.315 0 1.748 3.033.472 5.742-1.464 3.135-3.731 5.811-5.854 5.811M156.126 26.169c4.249 0 10.39-2.644 13.788-9.952 2.688-5.844 1.037-9.693-4.441-9.693-5.286 0-10.954 3.524-13.927 9.918-2.879 6.104-.803 9.727 4.533 9.727h.047zm1.89-4.045c-2.269 0-2.078-2.58-.615-5.811 1.275-2.709 3.543-5.742 6.043-5.742 2.36 0 1.746 3.033.472 5.742-1.416 3.135-3.727 5.811-5.854 5.811M188.419 6.622c-.375-.099-.662-.099-1.18-.099-1.746 0-4.297 1.11-6.422 3.559h-.141l1.229-3.198h-4.961a200.148 200.148 0 0 1-2.64 6.003l-6.043 12.887h3.114c1.746 0 3.116-.911 3.918-2.608l3.26-6.948a9.219 9.219 0 0 1 .896-1.566c1.367-1.891 3.35-2.838 5.098-2.838.615 0 .99.031 1.369.096l2.503-5.288zM145.881 21.598c-1.511 0-1.889-.849-.85-3.066l3.588-7.633h3.447l1.885-4.016h-3.49l2.359-5.024h-3.021c-1.746 0-3.115.947-3.918 2.645l-1.133 2.38h-2.502l-1.842 4.016h2.457l-3.826 8.252c-1.322 2.807-1.512 4.473-.895 5.517.563.942 1.838 1.465 3.635 1.465 1.557 0 2.973-.195 3.869-.453l1.983-4.242c-.564.127-.943.159-1.746.159M120.767 1.859c-1.749 0-3.165.947-3.919 2.645l-9.961 21.269h3.117c1.744 0 3.111-.911 3.916-2.608l9.961-21.306h-3.114zM93.809 6.622c-.331-.099-.615-.099-1.181-.099-1.699 0-4.295 1.11-6.373 3.559h-.188l1.274-3.198h-5.004c-.707 1.696-1.511 3.624-2.645 6.003l-5.995 12.887h3.068c1.794 0 3.164-.911 3.967-2.608l3.21-6.948a9.216 9.216 0 0 1 .897-1.566c1.367-1.891 3.35-2.838 5.098-2.838.613 0 1.04.031 1.416.096l2.456-5.288zM46.551 12.038c-.615 0-1.085 0-1.464-.096l3.637-7.801c.566-.094 1.178-.064 2.124-.064 2.787 0 3.494 1.438 2.359 3.952-1.131 2.542-3.636 4.009-6.656 4.009M58.92 8.057c1.511-3.719 1.511-7.93-6.704-7.93h-7.363L32.861 25.773h3.019c1.795 0 3.165-.911 3.967-2.608l3.211-6.851c.423.034.989.066 1.604.066 2.974 0 6.328-.297 9.112-2.122 2.22-1.435 4.014-3.46 5.146-6.201" style="fill:#ee3124"/>
  <path d="M39.471.128h-9.82L17.703 25.773h7.035c1.795 0 3.166-.911 3.967-2.608C29.507 21.468 39.471.128 39.471.128" style="fill:#1c3f94"/>
  <path d="M26.485.128 14.542 25.773h-4.531L20.776 2.739c.801-1.661 2.169-2.611 3.916-2.611h1.793z" style="fill:#ee3124"/>
  <path d="M12.324 14.128H1.182A1.17 1.17 0 0 0 0 15.302c0 .293.143.588.332.816l7.554 7.503 4.438-9.493z" style="fill:#1c3f94"/>
</svg>
